<?xml version="1.0" encoding="UTF-8" standalone="no"?>
<svg
   xmlns:dc="http://purl.org/dc/elements/1.1/"
   xmlns:cc="http://creativecommons.org/ns#"
   xmlns:rdf="http://www.w3.org/1999/02/22-rdf-syntax-ns#"
   xmlns:svg="http://www.w3.org/2000/svg"
   xmlns="http://www.w3.org/2000/svg"
   viewBox="0 0 300 228.07793"
   height="228.07793"
   width="300"
   xml:space="preserve"
   version="1.1"
   id="svg2"><metadata
     id="metadata8"><rdf:RDF><cc:Work
         rdf:about=""><dc:format>image/svg+xml</dc:format><dc:type
           rdf:resource="http://purl.org/dc/dcmitype/StillImage" /><dc:title></dc:title></cc:Work></rdf:RDF></metadata><defs
     id="defs6"><clipPath
       id="clipPath16"
       clipPathUnits="userSpaceOnUse"><path
         id="path18"
         d="M 0,0 396,0 396,612 0,612 0,0 Z" /></clipPath><clipPath
       id="clipPath28"
       clipPathUnits="userSpaceOnUse"><path
         id="path30"
         d="M 0,0 396,0 396,612 0,612 0,0 Z" /></clipPath><clipPath
       id="clipPath42"
       clipPathUnits="userSpaceOnUse"><path
         id="path44"
         d="m 123.12,451.343 149.76,0 0,113.857 -149.76,0 0,-113.857 z" /></clipPath><clipPath
       id="clipPath156"
       clipPathUnits="userSpaceOnUse"><path
         id="path158"
         d="m 343.168,24 28.832,0 0,65.435 -28.832,0 0,-65.435 z" /></clipPath><clipPath
       id="clipPath202"
       clipPathUnits="userSpaceOnUse"><path
         id="path204"
         d="M 0,0 396,0 396,612 0,612 0,0 Z" /></clipPath><clipPath
       id="clipPath274"
       clipPathUnits="userSpaceOnUse"><path
         id="path276"
         d="M 0,0 396,0 396,612 0,612 0,0 Z" /></clipPath></defs><g
     transform="matrix(1.25,0,0,-1.25,-153.9,792.25705)"
     id="g10"><g
       transform="matrix(1.6025641,0,0,1.6025641,-74.187692,-271.96327)"
       id="g38"><g
         clip-path="url(#clipPath42)"
         id="g40"><g
           transform="translate(125.2794,515.8953)"
           id="g46"><path
             id="path48"
             style="fill:#191a21;fill-opacity:1;fill-rule:nonzero;stroke:none"
             d="m 0,0 c -1.441,-1.315 -2.162,-3.025 -2.159,-5.098 l 0,-37.555 c 10e-4,-2.115 0.719,-3.842 2.159,-5.158 1.436,-1.319 3.211,-1.867 5.312,-1.69 3.36,0.282 6.723,0.543 10.09,0.782 l 0,7.099 c -3.367,-0.171 -6.73,-0.358 -10.09,-0.56 l 0,36.608 c 3.36,-0.202 6.723,-0.388 10.09,-0.56 l 0,7.099 C 12.035,1.206 8.672,1.467 5.312,1.75 3.212,1.927 1.439,1.357 0,0" /></g><g
           transform="translate(149.6811,516.272)"
           id="g50"><path
             id="path52"
             style="fill:#191a21;fill-opacity:1;fill-rule:nonzero;stroke:none"
             d="m 0,0 c -2.501,0.15 -5.001,0.311 -7.5,0.485 l 0,-49.475 c 5.454,0.379 10.916,0.701 16.383,0.969 l 0,6.791 C 5.92,-41.335 2.959,-41.449 0,-41.576 L 0,0 Z" /></g><g
           transform="translate(160.0678,468.3221)"
           id="g54"><path
             id="path56"
             style="fill:#191a21;fill-opacity:1;fill-rule:nonzero;stroke:none"
             d="m 0,0 c 2.549,0.12 5.1,0.228 7.652,0.323 l 0,46.749 C 5.1,47.167 2.549,47.275 0,47.395 L 0,0 Z" /></g><g
           transform="translate(181.8582,495.3007)"
           id="g58"><path
             id="path60"
             style="fill:#191a21;fill-opacity:1;fill-rule:nonzero;stroke:none"
             d="m 0,0 c -1.703,0.005 -3.406,0.011 -5.108,0.017 l 0,13.193 C -3.405,13.178 -1.704,13.15 0,13.125 L 0,0 Z m 0,19.688 c -4.213,0.084 -8.426,0.201 -12.634,0.351 l 0,-46.64 c 2.508,0.089 5.017,0.167 7.526,0.233 l 0,19.789 c 1.703,0.006 3.404,0.012 5.108,0.017 2.08,0.005 3.844,0.642 5.295,1.902 1.488,1.26 2.24,2.807 2.237,4.644 l 0,13.06 c 0,1.801 -0.749,3.336 -2.237,4.615 C 3.845,18.97 2.078,19.647 0,19.688" /></g><g
           transform="translate(237.8588,509.0123)"
           id="g62"><path
             id="path64"
             style="fill:#191a21;fill-opacity:1;fill-rule:nonzero;stroke:none"
             d="M 0,0 C 1.7,0.06 3.399,0.124 5.097,0.191 5.096,-4.391 5.096,-8.974 5.097,-13.556 3.399,-13.57 1.7,-13.582 0,-13.594 L 0,0 Z m 10.373,-18.461 c 1.485,1.336 2.227,2.996 2.227,4.97 l 0,14.006 C 12.601,2.449 11.86,4.057 10.373,5.309 8.928,6.606 7.171,7.18 5.097,7.065 0.894,6.831 -3.31,6.63 -7.518,6.462 l 0,-46.909 c 2.507,-0.1 5.014,-0.213 7.518,-0.336 l 0,20.189 c 2.082,-6.746 4.161,-13.579 6.241,-20.521 2.503,-0.143 5.003,-0.298 7.504,-0.464 -2.184,7.271 -4.369,14.396 -6.554,21.419 1.184,0.297 2.254,0.841 3.182,1.699" /></g><g
           transform="translate(203.5424,495.2804)"
           id="g66"><path
             id="path68"
             style="fill:#191a21;fill-opacity:1;fill-rule:nonzero;stroke:none"
             d="m 0,0 c -1.704,-0.001 -3.407,-0.003 -5.112,-0.003 l 0,13.034 c 1.704,10e-4 3.408,0.005 5.112,0.014 L 0,0 Z m 0,19.567 c -4.216,-0.029 -8.43,-0.024 -12.646,0.012 l 0,-45.68 c 2.512,0.022 5.023,0.033 7.534,0.031 l 0,19.551 c 1.704,0 3.408,-10e-4 5.112,-0.003 2.079,-10e-4 3.844,0.624 5.296,1.883 1.493,1.257 2.236,2.809 2.236,4.652 l 0,13.093 c 0,1.808 -0.746,3.332 -2.236,4.573 C 3.843,18.957 2.08,19.582 0,19.567" /></g><g
           transform="translate(212.5808,469.0797)"
           id="g70"><path
             id="path72"
             style="fill:#191a21;fill-opacity:1;fill-rule:nonzero;stroke:none"
             d="m 0,0 c 5.48,-0.099 10.958,-0.252 16.43,-0.463 l 0,6.687 C 13.465,6.306 10.498,6.375 7.531,6.433 l 0,13.205 c 1.702,-0.007 4.739,-0.014 6.439,-0.021 10e-4,2.215 10e-4,4.431 0,6.647 -1.7,-0.008 -4.737,-0.016 -6.439,-0.023 l 0,13.206 c 2.968,0.058 5.934,0.127 8.899,0.208 l 0,6.688 C 10.958,46.133 5.48,45.978 0,45.879 L 0,0" /></g><g
           transform="translate(272.8797,503.2861)"
           id="g74"><path
             id="path76"
             style="fill:#191a21;fill-opacity:1;fill-rule:nonzero;stroke:none"
             d="m 0,0 0,7.511 c -0.001,2.075 -0.739,3.783 -2.217,5.094 -1.439,1.357 -3.191,1.926 -5.254,1.753 -2.103,-0.175 -4.207,-0.344 -6.313,-0.504 -2.108,-0.16 -3.882,-0.995 -5.326,-2.486 -1.445,-1.452 -2.166,-3.137 -2.167,-5.073 l 0,-14.05 c 0,-1.977 0.723,-3.633 2.167,-5.002 1.444,-1.369 3.221,-2.075 5.326,-2.098 2.106,-0.022 4.21,-0.047 6.313,-0.072 l 0,-14.644 c -2.103,0.127 -4.207,0.247 -6.313,0.361 l 0,7.177 c -2.495,0.081 -4.994,0.158 -7.493,0.23 l 0,-7.025 c 0,-1.977 0.723,-3.676 2.167,-5.13 1.444,-1.454 3.221,-2.269 5.326,-2.429 2.106,-0.16 4.21,-0.328 6.313,-0.505 2.066,-0.173 3.817,0.377 5.254,1.696 1.477,1.312 2.217,3.037 2.217,5.152 l 0,15.022 c -0.001,2.075 -0.739,3.843 -2.217,5.269 -1.439,1.469 -3.191,2.172 -5.254,2.147 -2.103,-0.026 -4.207,-0.049 -6.313,-0.072 l 0,14.354 c 2.106,0.115 4.21,0.235 6.313,0.361 l 0,-7.321 C -4.978,-0.194 -2.488,-0.099 0,0" /></g><g
           transform="translate(131.0044,516.8123)"
           id="g78"><path
             id="path80"
             style="fill:#bfbebe;fill-opacity:1;fill-rule:nonzero;stroke:none"
             d="m 0,0 c 2.958,-0.249 6.045,-0.49 9.176,-0.717 l 0,0.301 c -3.199,0.229 -6.439,0.482 -9.63,0.75 -0.235,0.02 -0.467,0.03 -0.689,0.03 -1.678,0 -3.065,-0.538 -4.238,-1.645 -1.332,-1.215 -2.005,-2.807 -2.003,-4.734 l 0,-37.555 c 0.001,-1.587 0.437,-2.942 1.302,-4.042 -0.643,1.021 -0.967,2.226 -0.968,3.597 l 0,37.554 c -0.003,1.96 0.682,3.58 2.037,4.817 1.196,1.126 2.607,1.674 4.315,1.674 C -0.471,0.03 -0.236,0.02 0,0" /></g><g
           transform="translate(149.1808,515.4951)"
           id="g82"><path
             id="path84"
             style="fill:#bfbebe;fill-opacity:1;fill-rule:nonzero;stroke:none"
             d="m 0,0 0,0.306 c -2.168,0.131 -4.355,0.272 -6.5,0.419 l 0,-48.402 0.334,0.022 0,48.055 0.06,-0.004 C -4.135,0.261 -2.081,0.128 0,0" /></g><g
           transform="translate(167.2196,514.5963)"
           id="g86"><path
             id="path88"
             style="fill:#bfbebe;fill-opacity:1;fill-rule:nonzero;stroke:none"
             d="m 0,0 0,0.316 c -2.18,0.083 -4.417,0.177 -6.652,0.28 l 0,-46.346 0.334,0.014 0,46.004 0.058,-0.003 C -4.231,0.171 -2.125,0.082 0,0" /></g><g
           transform="translate(182.2952,514.1551)"
           id="g90"><path
             id="path92"
             style="fill:#bfbebe;fill-opacity:1;fill-rule:nonzero;stroke:none"
             d="M 0,0 C 1.514,-0.03 2.866,-0.42 4.035,-1.163 2.772,-0.204 1.268,0.3 -0.447,0.334 -4.473,0.414 -8.552,0.525 -12.572,0.667 l 0,-45.605 0.335,0.012 0,45.262 0.057,-0.001 C -8.143,0.193 -4.045,0.08 0,0" /></g><g
           transform="translate(243.9103,515.2578)"
           id="g94"><path
             id="path96"
             style="fill:#bfbebe;fill-opacity:1;fill-rule:nonzero;stroke:none"
             d="m 0,0 c 1.358,0 2.541,-0.321 3.585,-0.976 -1.147,0.881 -2.471,1.31 -4.029,1.31 -0.159,0 -0.321,-0.005 -0.483,-0.013 -3.982,-0.223 -8.066,-0.419 -12.142,-0.585 l 0,-45.948 0.334,-0.014 0,45.624 0.054,0.001 c 4.111,0.167 8.213,0.365 12.192,0.588 C -0.323,-0.004 -0.159,0 0,0" /></g><g
           transform="translate(198.4542,513.9944)"
           id="g98"><path
             id="path100"
             style="fill:#bfbebe;fill-opacity:1;fill-rule:nonzero;stroke:none"
             d="m 0,0 c 1.848,0 3.71,0.006 5.536,0.019 l 0.068,0 c 1.544,0 2.879,-0.361 4.046,-1.099 -1.266,0.963 -2.741,1.433 -4.491,1.433 l -0.068,0 C 3.235,0.34 1.372,0.334 -0.445,0.334 c -2.171,0 -4.395,0.009 -6.612,0.027 l 0,-44.671 0.334,0.002 0,44.336 0.056,-0.001 C -4.449,0.009 -2.206,0 0,0" /></g><g
           transform="translate(228.5113,514.9023)"
           id="g102"><path
             id="path104"
             style="fill:#bfbebe;fill-opacity:1;fill-rule:nonzero;stroke:none"
             d="m 0,0 c -5.102,-0.193 -10.293,-0.338 -15.43,-0.435 l 0,-44.897 0.334,-0.006 0,44.568 0.054,0.001 c 4.97,0.092 10.031,0.234 15.042,0.42 L 0,0 Z" /></g><g
           transform="translate(265.8862,516.8121)"
           id="g106"><path
             id="path108"
             style="fill:#bfbebe;fill-opacity:1;fill-rule:nonzero;stroke:none"
             d="m 0,0 c 0.225,0.019 0.451,0.029 0.67,0.029 1.229,0 2.308,-0.294 3.269,-0.892 -1.068,0.824 -2.289,1.225 -3.714,1.225 -0.214,0 -0.437,-0.008 -0.66,-0.027 -2.095,-0.176 -4.22,-0.346 -6.317,-0.506 -1.964,-0.148 -3.647,-0.933 -5.005,-2.334 -1.364,-1.371 -2.026,-2.916 -2.026,-4.726 l 0,-14.049 c 0,-1.475 0.423,-2.744 1.289,-3.85 -0.642,1.002 -0.955,2.126 -0.955,3.404 l 0,14.05 c 0,1.841 0.674,3.412 2.057,4.804 1.378,1.42 3.085,2.217 5.076,2.367 C -4.226,-0.346 -2.101,-0.177 0,0" /></g><g
           transform="translate(123.1203,458.2616)"
           id="g110"><path
             id="path112"
             style="fill:#1a68bb;fill-opacity:1;fill-rule:nonzero;stroke:none"
             d="m 0,0 c 49.611,6.193 100.149,6.193 149.76,0 l 0,2.601 C 100.149,8.336 49.611,8.336 0,2.601 L 0,0 Z" /></g><g
           transform="translate(141.191,451.3433)"
           id="g114"><path
             id="path116"
             style="fill:#ed1248;fill-opacity:1;fill-rule:nonzero;stroke:none"
             d="m 0,0 c 37.504,9.716 76.116,9.716 113.618,0 l 0,2.454 C 76.114,11.906 37.504,11.908 0,2.454 0.001,1.635 0.001,0.818 0,0" /></g><g
           transform="translate(183.1285,522.2073)"
           id="g118"><path
             id="path120"
             style="fill:#1a68bb;fill-opacity:1;fill-rule:nonzero;stroke:none"
             d="m 0,0 c -20.072,0.492 -40.115,1.977 -60.009,4.46 l 0,-2.6 C -38.855,-0.586 -17.533,-1.984 3.814,-2.344 2.47,-1.674 1.192,-0.892 0,0" /></g><g
           transform="translate(212.8715,522.2073)"
           id="g122"><path
             id="path124"
             style="fill:#1a68bb;fill-opacity:1;fill-rule:nonzero;stroke:none"
             d="m 0,0 c -1.192,-0.892 -2.47,-1.674 -3.814,-2.344 21.347,0.36 42.669,1.758 63.823,4.204 l 0,2.6 C 40.115,1.977 20.072,0.492 0,0" /></g><g
           transform="translate(178.1342,527.1899)"
           id="g126"><path
             id="path128"
             style="fill:#ed1248;fill-opacity:1;fill-rule:nonzero;stroke:none"
             d="m 0,0 c -12.381,1.102 -24.72,3.23 -36.943,6.396 10e-4,-0.819 10e-4,-1.636 0,-2.454 12.92,-3.257 25.971,-5.391 39.064,-6.403 C 1.362,-1.688 0.653,-0.867 0,0" /></g><g
           transform="translate(217.8653,527.1891)"
           id="g130"><path
             id="path132"
             style="fill:#ed1248;fill-opacity:1;fill-rule:nonzero;stroke:none"
             d="m 0,0 c -0.653,-0.867 -1.362,-1.687 -2.12,-2.46 13.092,1.012 26.144,3.146 39.064,6.402 l 0,2.455 C 24.721,3.23 12.38,1.102 0,0" /></g><g
           transform="translate(174.9162,542.1158)"
           id="g134"><path
             id="path136"
             style="fill:#ffffff;fill-opacity:1;fill-rule:nonzero;stroke:none"
             d="M 0,0 C 0,12.749 10.335,23.084 23.084,23.084 35.833,23.084 46.168,12.749 46.168,0 46.168,-12.749 35.833,-23.084 23.084,-23.084 10.335,-23.084 0,-12.749 0,0" /></g><g
           transform="translate(214.686,529.2902)"
           id="g138"><path
             id="path140"
             style="fill:#191a21;fill-opacity:1;fill-rule:nonzero;stroke:none"
             d="m 0,0 c -2.644,3.43 -4.148,7.509 -4.352,11.814 l 8.698,0 C 4.141,7.505 2.641,3.427 0,0 m -15.674,-8.206 0,6.032 -2.023,0 0,-6.032 c -5.48,0.26 -10.561,2.611 -14.335,6.629 3.084,3.85 4.823,8.476 5.037,13.391 l 0,2.023 c -0.214,4.916 -1.953,9.541 -5.037,13.391 3.774,4.019 8.855,6.369 14.335,6.629 l 0,-5.977 2.023,0 0,5.977 c 5.479,-0.26 10.561,-2.61 14.334,-6.629 -3.083,-3.85 -4.823,-8.475 -5.036,-13.391 l 0,-2.023 C -6.163,6.899 -4.423,2.273 -1.34,-1.577 -5.113,-5.596 -10.195,-7.946 -15.674,-8.206 M -33.372,0 c -2.641,3.427 -4.141,7.505 -4.346,11.814 l 8.698,0 C -29.225,7.508 -30.728,3.43 -33.372,0 m 0,25.651 c 2.645,-3.43 4.147,-7.509 4.352,-11.814 l -8.698,0 c 0.205,4.31 1.705,8.388 4.346,11.814 M 0,25.651 C 2.641,22.225 4.141,18.147 4.346,13.837 l -8.698,0 c 0.204,4.305 1.708,8.384 4.352,11.814 m -16.686,10.258 c -12.728,0 -23.084,-10.355 -23.084,-23.084 0,-12.728 10.356,-23.083 23.084,-23.083 12.729,0 23.084,10.355 23.084,23.083 0,12.729 -10.355,23.084 -23.084,23.084" /></g><g
           transform="translate(192.8575,551.7842)"
           id="g142"><path
             id="path144"
             style="fill:#ed1248;fill-opacity:1;fill-rule:nonzero;stroke:none"
             d="m 0,0 0,-19.259 10.289,0 0,2.648 -7.535,0 L 2.754,0 0,0 Z" /></g><g
           transform="translate(206.645,545.3321)"
           id="g146"><path
             id="path148"
             style="fill:#1a68bb;fill-opacity:1;fill-rule:nonzero;stroke:none"
             d="m 0,0 0,7.936 c 0,1.189 -0.479,1.673 -1.652,1.673 l -14.006,0 c -1.159,0 -1.632,-0.484 -1.632,-1.673 l 0,-22.305 c 0,-1.188 0.473,-1.673 1.632,-1.673 l 14.006,0 c 1.173,0 1.652,0.485 1.652,1.673 l 0,7.945 -2.775,0 0,-7.182 -11.76,0 0,20.78 11.76,0 L -2.775,0 0,0 Z" /></g><path
           id="path150"
           style="fill:#ed1248;fill-opacity:1;fill-rule:nonzero;stroke:none"
           d="m 200.459,543.503 -1.342,0 0,5.634 1.342,0 0,-5.634 z m 2.683,-7.584 0.004,15.865 -6.685,0 -0.065,-15.865 2.678,0 0.043,4.945 1.361,0 -0.02,-4.945 2.684,0 z" /></g></g></g></svg>