<?xml version="1.0" encoding="utf-8"?>
<!-- Generator: Adobe Illustrator 14.0.0, SVG Export Plug-In . SVG Version: 6.00 Build 43363)  -->
<!DOCTYPE svg PUBLIC "-//W3C//DTD SVG 1.1//EN" "http://www.w3.org/Graphics/SVG/1.1/DTD/svg11.dtd">
<svg version="1.1" id="Layer_1" xmlns="http://www.w3.org/2000/svg" xmlns:xlink="http://www.w3.org/1999/xlink" x="0px" y="0px"
	 width="250px" height="250px" viewBox="0 0 250 250" enable-background="new 0 0 250 250" xml:space="preserve">
<g>
	<path fill="#231F1F" d="M89.89,245c16.583,0,32.328-6.486,44.239-18.585c11.509-11.654,18.32-27.211,18.32-44.068
		c0-16.429-6.812-32.396-18.32-44.076c-11.911-11.663-27.639-18.149-44.239-18.149c-34.45,0.009-62.499,28.101-62.499,62.225
		c0,16.857,6.777,32.414,18.26,44.068C57.563,238.514,73.307,245,89.89,245 M29.051,182.347c0-15.983,6.383-31.54,17.901-42.775
		c11.449-11.663,26.783-18.14,42.938-18.132c16.155-0.008,31.489,6.469,42.972,18.132c11.492,11.235,17.893,26.792,17.893,42.775
		c0,33.697-27.237,60.942-60.865,60.925c-16.155-0.017-31.489-6.041-42.938-17.729C35.434,213.888,29.051,198.776,29.051,182.347"/>
	<path fill="#101B23" d="M233.688,82.54c-8.934-9.943-28.066-17.721-52.728-22.479c0-2.584,1.678-3.876,4.655-6.033
		c1.711-1.301,3.389-2.165,5.545-4.321c8.095-7.359-1.712-19.013-1.712-19.45l-5.527-6.495l1.283,8.223
		c0.839,5.63-0.855,7.342-7.238,11.663c-0.445,0.428-1.284,0.881-1.694,1.729c-0.018-3.885,0.41-7.761-0.839-12.972
		c-1.301-5.177-3.851-7.342-3.851-7.342l-0.855,7.778c0,0-0.428,5.63-8.078,12.527c0.445-0.83,1.284-1.292,1.712-2.147
		c3.833-5.605,2.943-11.671,1.694-19.005l-0.411-1.746c-1.283-7.325,0.839-12.082,2.088-12.955c1.301-1.72,3.851-4.33,3.851-4.33
		s-1.677-0.419-5.1,0c-5.117,0.873-13.212,3.465-12.784,10.388c0,2.584,0.855,5.605,1.694,7.77c0.873,3.012,1.729,5.202,0.873,6.469
		c-0.411,1.301-2.122,1.737-5.101,2.593c-11.491,1.746-19.997,7.35-24.687,14.709c-1.266,2.593-2.104,5.186-2.532,8.198
		c-28.512,0-55.312,3.465-76.173,9.952c-22.95,7.333-35.733,16.848-37,28.502c-0.428,5.63,2.122,14.256,17.011,22.487v0.419
		l4.261,1.729l2.122,1.292h0.428c6.811,3.029,14.889,5.63,23.805,7.778c-3.389,1.712-6.349,3.911-8.917,6.495
		c-14.461,11.672-22.539,29.367-22.539,47.952c0,16.84,6.401,32.413,18.294,44.068c11.483,12.099,27.228,18.567,43.811,18.567
		c29.778,0,55.303-21.169,61.276-49.697c5.065-15.111,4.688-31.523,4.227-37.582c-0.41-13.811,6.4-21.589,10.645-25.046
		c20.023-2.601,37.445-6.905,50.194-12.536l2.14-0.864l4.672-2.156v-0.428c10.183-5.622,16.189-12.544,17.011-19.877
		C239.643,91.61,237.521,86.853,233.688,82.54 M213.254,94.64c1.745,1.729,1.745,3.021,1.745,3.448c0,2.173-2.994,5.194-7.684,7.333
		c-10.2,5.202-27.211,9.523-47.645,11.252c1.283-0.419,2.122-0.864,2.978-1.301h0.445c5.938-2.575,12.339-5.194,12.767-15.111
		c0-1.3,0-6.041,0.821-7.77c1.284-2.173,4.278-5.639,6.366-6.495l-3.799-0.873h-0.855c1.266-0.864,2.566-2.148,3.405-3.44
		C197.972,85.125,209.01,89.882,213.254,94.64 M35.006,96.804c0.428-7.795,29.35-18.577,75.745-19.895
		c-4.261,3.038-9.361,8.66-10.627,17.73l-0.428,3.465c-0.445,2.156-0.873,4.304-1.711,6.478c-1.694,4.758-6.794,8.625-11.911,11.671
		c-18.74-2.61-34.467-6.478-43.4-11.244C37.574,101.981,34.596,99.397,35.006,96.804"/>
	<path fill="#F7A022" d="M178.821,59.642c0.428-5.613,5.527-6.486,10.627-11.244c6.812-6.486-1.711-16.848-1.711-16.848
		c0.855,6.922-2.516,9.943-8.488,13.819c-1.729,1.301-3.012,3.029-3.405,5.63c0,2.584-0.411,5.203-0.856,8.223
		C176.237,59.223,177.521,59.651,178.821,59.642"/>
	<path fill="#F7A022" d="M160.526,50.144c-1.694,1.275-2.96,2.156-4.278,3.448c-1.232,0.873-2.104,2.165-2.978,3.021
		c5.562,0.454,11.5,0.864,16.635,1.729c3.799-6.049,5.527-13.4,3.371-25.499C173.276,32.842,172.849,41.057,160.526,50.144"/>
	<path fill="#F7A022" d="M128.173,55.313c6.829,0,13.195,0.436,19.604,0.89c0-0.445,0.41-0.445,0.41-0.89
		c4.262-4.313,11.038-8.198,14.461-13.4c3.406-5.168,2.122-11.218,0.855-18.988c-2.139-12.972,2.979-15.556,2.979-15.556
		s-10.628,1.72-10.628,8.206c0.411,8.189,8.916,16.412-4.244,19.005c-14.504,2.593-23.438,10.362-25.542,20.733H128.173"/>
	<path fill="#BF3339" d="M29.051,186.215c1.711,8.231,6.383,18.157,15.762,24.661c2.978,2.156,5.956,3.885,9.361,5.168
		c-2.122-3.457-4.689-6.914-6.794-10.781c-4.707-6.486-9.378-13.418-12.374-20.349c-2.96-7.753-3.816-15.522-2.105-23.736
		c-2.55,6.469-3.833,13.383-3.851,20.741C29.068,183.647,29.051,184.932,29.051,186.215"/>
	<path fill="#BF3339" d="M39.25,183.203c2.567,6.931,7.273,13.399,11.518,19.868c3.406,4.758,6.794,9.961,9.361,14.718
		c2.533,0.445,5.528,0.839,8.505,1.284c-3.406-4.313-5.973-9.054-8.078-14.701c-8.505-21.598-7.256-48.38,3.406-63.937
		c5.528-7.786,12.322-12.964,20.81-17.704c7.239-4.33,11.945-5.211,16.617-8.214c5.083-3.021,7.65-8.206,4.262-19.441
		c-0.873-3.466-0.873-6.067-0.873-7.787c-1.267,2.165-2.105,4.749-2.533,7.787c-0.428,3.029-0.428,6.486-2.122,10.345
		c-4.261,11.688-26.389,18.157-28.939,19.03c-8.505,2.584-14.889,6.486-19.989,10.798C36.307,148.65,33.347,168.52,39.25,183.203"/>
	<path fill="#BF3339" d="M130.313,76.499c0,0.847,0.428,1.729,0.428,2.165c0.428,4.313-0.873,7.333-5.956,8.189
		c-5.1,0.881-6.794-3.449-7.239-7.342c0-1.284,0-2.165,0-3.021c-0.855-0.009-1.694-0.009-2.55,0c-1.694,1.3-3.816,2.584-5.956,4.757
		c-0.838,2.156-2.105,5.177-0.428,12.51c3.406,12.553,2.139,20.331-8.095,24.644c-13.178,5.63-21.272,9.07-32.721,23.334
		c-5.117,6.486-8.095,17.695-8.523,28.939c-0.445,10.799,1.694,22.487,5.511,31.985c2.55,6.058,5.545,11.671,8.934,16.412
		c3.422-0.018,7.256-0.839,10.662-1.284c-3.833-4.757-5.973-10.37-6.383-16.429c-1.284-20.759,9.789-29.367,26.783-43.195
		l7.65-6.503c30.659-25.918,21.7-52.265,25.105-74.744C135.002,76.491,132.435,76.482,130.313,76.499"/>
	<path fill="#BF3339" d="M142.224,76.91c-0.855,4.775-1.267,9.515-1.267,14.281c-1.283,19.433-0.873,41.912-25.534,63.928
		l-7.649,6.059c-16.583,13.399-26.373,21.614-25.534,39.771c0,6.024,2.55,11.21,6.811,15.54c4.672-1.301,9.344-3.457,13.623-6.059
		c21.7-12.082,35.288-30.668,40.824-53.994c2.995-15.137,2.995-27.253,2.995-36.751c0-5.168,0.411-14.675,0.411-14.675
		c0.873-6.058,1.694-14.692,8.95-25.936c0.411-0.419,0.411-0.419,0.821-0.847C152.021,77.791,147.332,77.355,142.224,76.91"/>
	<path fill="#BF3339" d="M149.882,140.008v0.428c-0.855,3.457-0.839,7.325-1.694,11.244c0,1.729,0,2.994-0.41,4.313
		c0,0.444,0,0.855-0.445,1.283c-5.108,24.644-19.553,44.085-42.108,57.057c-3.833,2.14-8.095,3.885-11.911,5.613
		c6.812,4.313,14.461,5.613,19.989,4.758c20.417-3.029,30.214-16.429,34.886-30.685c5.083-14.7,4.689-30.257,4.262-36.743
		c-0.839-21.589,15.744-29.367,15.744-29.367C155.393,127.036,151.165,132.657,149.882,140.008"/>
	<path fill="#BF3339" d="M135.823,219.945c-8.044,6.914-16.994,8.198-21.272,9.07c-8.078,1.301-17.422-0.872-25.927-7.342
		l-0.428-0.428c-3.423,0.856-7.222,1.712-10.645,2.122c8.112,8.66,18.74,13.846,33.628,14.718
		c9.772-3.885,18.688-10.354,25.088-18.568C136.268,219.518,136.268,219.963,135.823,219.945"/>
	<path fill="#BF3339" d="M60.129,234.629c0-4.313-1.301-9.07-3.406-13.383c-5.1-1.301-9.772-3.457-14.461-6.485
		c-2.567-1.729-5.117-3.885-7.239-6.486C40.551,219.518,49.057,228.588,60.129,234.629"/>
	<path fill="#BF3339" d="M101.835,241.133c-8.112-2.19-15.351-4.758-21.29-9.55c-3.406-2.567-5.956-5.168-8.488-8.215
		c-3.423,0-6.829-0.41-9.806-0.838c1.711,4.774,2.516,9.498,2.105,14.272c7.701,3.439,15.762,5.613,24.695,5.613
		C93.295,242.416,97.557,241.988,101.835,241.133"/>
	<path fill="#BF3339" d="M171.582,92.919c-1.283,4.741-5.956,4.313-7.222,1.72c-2.14-3.885-1.267-7.351,0.838-9.515
		c2.105-1.72,5.973-3.012,9.345-4.741c-3.816-0.437-8.488-1.309-12.75-1.72h-0.428c-0.411,0.83-0.839,1.283-1.267,1.72
		c-7.222,10.807-8.077,19.013-8.488,25.038l-0.445,2.182c-0.41,3.021-0.41,7.342-0.41,12.091v1.737v5.176v-0.864
		c2.122-6.469,5.921-10.362,11.038-12.527c5.938-2.156,11.483-4.321,11.911-12.955c0-3.465,0.428-6.922,1.283-8.651
		c1.267-3.029,3.834-3.876,3.834-3.876C176.271,87.289,172.849,88.573,171.582,92.919"/>
	<path fill="#FFFFFF" d="M128.173,58.77C66.923,57.905,15.874,73.906,14.179,93.758c-0.428,8.223,6.794,15.582,19.561,21.614
		c7.667,3.902,17.867,7.359,29.35,9.943c2.567-1.284,4.689-2.156,7.239-3.038c2.139-0.419,5.956-1.711,10.2-3.44
		c-17.439-2.584-31.044-6.478-39.567-10.816c-6.366-3.44-9.772-7.351-9.344-11.218c1.266-13.828,43.828-24.207,95.289-23.771
		c51.914,0.419,92.747,12.091,91.464,25.491c-0.428,3.457-3.816,6.897-9.755,9.943c-10.645,5.622-29.795,10.371-52.762,12.1
		c-0.855,1.292-1.301,2.593-2.156,3.885c10.662-3.885,22.573,1.728,22.573,1.728s0.821,0.437,1.694,0.873
		c15.316-3.029,28.494-6.931,38.3-11.244c11.483-5.639,18.688-12.527,19.544-19.877C237.521,76.063,189.448,59.214,128.173,58.77"/>
	<path fill="#231F1F" d="M89.462,244.555c16.583,0,31.917-6.469,43.846-18.14c11.919-11.654,18.303-27.211,18.303-44.068
		c0-16.429-6.384-32.396-18.303-44.076c-11.946-11.654-27.262-18.149-43.846-18.149c-34.45,0-62.516,28.101-62.516,62.225
		c0,16.857,6.401,32.414,18.294,44.068C57.151,238.086,72.468,244.555,89.462,244.555 M28.229,182.347
		c0-16.001,6.366-31.54,17.85-42.775c11.483-11.663,26.8-18.14,43.383-18.14c16.19,0.008,31.489,6.477,42.973,18.14
		c11.492,11.235,17.893,26.774,17.893,42.775c0,33.697-27.682,60.925-60.848,60.925c-16.583,0-31.917-6.041-43.4-17.713
		C34.596,213.888,28.229,198.776,28.229,182.347"/>
</g>
</svg>
