<svg id="Layer_1" data-name="Layer 1" xmlns="http://www.w3.org/2000/svg" viewBox="0 0 101.36272 85.49796"><title>Untitled-36</title><path d="M84.778,11.80194A32.531,32.531,0,0,0,59.33,0L18.805.004,0,85.47495l34.596.023,4.965-20.683c4.648,0,16.866.005,16.853.005,11.589.08,21.099-3.844,27.499-11.352,11.626-12.661,9.584-31.144.865-41.666" fill="#bec0c2"/><path d="M37.7905,62.56317l-4.963,20.682-30.03.011,17.818-81.002,38.709.027a30.05323,30.05323,0,0,1,23.721,10.958c8.585,10.359,9.426,27.577-.846,38.769-6.298,7.387-15.533,10.632-25.77,10.558Z" fill="#002d62"/><path d="M16.6254,20.24817l16.967.012c1.95,0,4.025,1.638,3.126,4.114a23.01608,23.01608,0,0,0-1.181,4.973c-.154,1.3,1.3,2.121,2.132,2.121l34.578.024c.65,0,.994-.185.994-.494a18.25807,18.25807,0,0,0-.154-2.259c-.12-.768-.247-.898-.867-.898-4.31-.004-6.067-1.925-10.584-4.838s-11.142-4.589-16.837-4.593l-27.761-.019Z" fill="#fdbb30"/><path d="M37.57379,42.64227a23.45153,23.45153,0,0,1-1.49-4.20795,4.31091,4.31091,0,0,0-4.545-3.256l-18.198-.012.451-2.041,58.982.039c.586,0,.462.247.433.897-.034.652-.185,1.859-.281,2.571-.093.71-.68.542-1.24.555a10.13,10.13,0,0,0-5.234,1.422c-2.445,1.837-7.655,5.061-10.588,6-3.141.999-14.886,4.596-18.326-2.028" fill="#fdbb30"/><path d="M10.0787,50.02417l30.799.022a5.21268,5.21268,0,0,1,3.438,1.078,26.79736,26.79736,0,0,0,9.557,4.741c1.609.464,4.371-.136,6.843-1.535,6.167-3.485,10.133-10.116,11.433-14.386.341-1.115-.309-1.024-1.173-.964-2.598.186-5.329,2.537-8.92,4.826-3.594,2.287-10.901,4.451-17.835,4.444l-33.746-.021Z" fill="#fdbb30"/><path d="M55.25861,8.77826a6.95715,6.95715,0,0,1,2.86.168c5.85,2.304,11.385,8.396,13.701,14.869.446,1.245.556,2.043-.001,2.106-2.682.296-3.931-1.026-7.087-3.163a36.51678,36.51678,0,0,0-10.059-4.868c-3.937-1.25305-11.11-1.432-12.039-1.463-.925-.031-.808-.42-.404-.822a25.00289,25.00289,0,0,1,13.029-6.827" fill="#fdbb30"/><path d="M83.32782,30.97284a.55873.55873,0,0,1-.555.527c-.031,0-6.747-.006-6.747-.006-.867,0-.883-.401-.91-.898-.034-.495-.173-1.486-.203-2.074-.03-.57-.238-1.225.525-1.545a9.8355,9.8355,0,0,0,4.462-4.209c.272-.53.68-1.407,1.142-.662,1.597,2.553,2.096,5.704,2.286,8.86694" fill="#fdbb30"/><path d="M80.91541,43.09454c-.117.22705-.549.398-.688.027a11.00371,11.00371,0,0,0-4.934-5.343.88263.88263,0,0,1-.466-1.068c.063-.48.266-2.013.298-2.662.025-.511.232-.882.618-.882l7.03.004c.248.002.559.225.559.41a21.977,21.977,0,0,1-2.417,9.514" fill="#fdbb30"/><path d="M62.63382,56.287c-.496.07-1.577-.099.127-1.089,5.11-2.969,9.659-9.937,10.873-13.938.465-1.527.514-1.607,1.099-1.439a7.2605,7.2605,0,0,1,2.957,2.586c.942,1.3,1.352,3.833.806,4.56a24.39516,24.39516,0,0,1-15.862,9.32" fill="#fdbb30"/><path d="M75.62631,24.74738c-1.187.64-1.418.52106-1.671-.374-2.219-7.785-8.767-13.55-11.441-15.254-.511-.322-.378-.537-.01-.488,6.409.853,12.684,4.346,15.843,9.13,1.807,2.741-1.572,6.367-2.721,6.986" fill="#fdbb30"/><path d="M48.67239,71.45c-.077.32-1.273,5.356-1.335,5.618h-3.172c.097-.405,1.277-5.362,1.337-5.618Zm-5.222-2.276-3.838,16.165h2.589s1.361-5.73,1.427-5.997h4.141a1.96635,1.96635,0,0,0,1.993-1.573l1.654-6.956a1.82461,1.82461,0,0,0,.051-.435,1.14209,1.14209,0,0,0-.23-.726,1.508,1.508,0,0,0-1.239-.478Z" fill="#002d62"/><path d="M57.21548,79.60516c-.082.352-.792,3.341-.85,3.581h-2.86c.084-.35.796-3.341.854-3.581Zm-2.059-7.277a1.7609,1.7609,0,0,0-1.866,1.474l-.678,2.861h2.531s.446-1.895.505-2.142h2.775c-.086.371-.626,2.633-.682,2.87h-3.686a2.066,2.066,0,0,0-2.127,1.8l-1.117,4.693a1.48348,1.48348,0,0,0-.042.356,1.13867,1.13867,0,0,0,.24.723,1.40536,1.40536,0,0,0,1.139.48c.013,0,.067-.004.067-.004.913-.069,2.907-.219,3.686-.298-.012.041-.049.198-.049.198h2.53l2.72-11.453a1.31339,1.31339,0,0,0-.146-1.159,1.26028,1.26028,0,0,0-1.045-.399Z" fill="#002d62"/><path d="M65.76212,72.32816a1.74348,1.74348,0,0,0-1.831,1.474l-2.369,9.981a1.323,1.323,0,0,0,.138,1.162,1.27579,1.27579,0,0,0,1.055.394h4.673a1.72251,1.72251,0,0,0,1.826-1.473l.922-3.884h-2.489s-.691,2.908-.751,3.165h-2.692c.094-.404,1.986-8.363,2.047-8.626h2.693c-.089.38-.506,2.113-.506,2.113h2.492l.656-2.748a1.33086,1.33086,0,0,0-.133-1.169,1.29118,1.29118,0,0,0-1.062-.389Z" fill="#002d62"/><path d="M79.23529,74.52118c-.079.332-.63,2.657-.686,2.888h-2.674c.079-.331.63-2.654.688-2.888Zm-3.204-2.193a1.74109,1.74109,0,0,0-1.828,1.474l-2.37,9.981a1.31958,1.31958,0,0,0,.139,1.162,1.27011,1.27011,0,0,0,1.053.394h4.69a1.79562,1.79562,0,0,0,1.185-.354,1.93178,1.93178,0,0,0,.644-1.119l.867-3.64h-2.53s-.634,2.669-.696,2.921h-2.673c.092-.383.803-3.379.862-3.624h4.61l.733-.592,1.199-5.045a2.11956,2.11956,0,0,0,.064-.499,1.04044,1.04044,0,0,0-.202-.664,1.27884,1.27884,0,0,0-1.055-.395Z" fill="#002d62"/><path d="M90.81381,72.21585c-1.019.117-2.657.31-3.362.422.009-.031.075-.309.075-.309l-2.531-.001-3.09,13.012h2.529s2.462-10.361,2.526-10.634h2.512c-.092.381-.411,1.929-.411,1.929h2.549l.631-2.851a1.30654,1.30654,0,0,0-.147-1.148,1.43559,1.43559,0,0,0-1.187-.429c-.02.001-.094.009-.094.009" fill="#002d62"/><path d="M95.41812,72.32816a1.68267,1.68267,0,0,0-1.706,1.474l-.737,3.103a2.26967,2.26967,0,0,0-.064.508.96539.96539,0,0,0,.193.619.26687.26687,0,0,1,.018.033c.005.004.005.008.01.012l-.005-.009a.7437.7437,0,0,0,.133.1c2.893,1.974,3.658,2.527,3.857,2.687-.044.192-.524,2.205-.543,2.292h-2.491c.091-.381.681-2.86.681-2.86h-2.532l-.828,3.496a1.34719,1.34719,0,0,0,.141,1.186,1.11816,1.11816,0,0,0,.93.37h4.751a1.67377,1.67377,0,0,0,1.705-1.473l.81-3.41a1.9353,1.9353,0,0,0,.062-.468,1.27619,1.27619,0,0,0-.346-.902l-.015-.018-.019-.01c-1.341-.872-3.457-2.267-3.823-2.554.045-.192.431-1.816.472-1.983h2.551c-.091.378-.497,2.149-.497,2.149h2.531l.643-2.784a1.34905,1.34905,0,0,0-.149-1.173,1.14708,1.14708,0,0,0-.96-.385Z" fill="#002d62"/></svg>