<?xml version="1.0" encoding="utf-8"?>
<!-- Generator: Adobe Illustrator 16.0.0, SVG Export Plug-In . SVG Version: 6.00 Build 0)  -->
<!DOCTYPE svg PUBLIC "-//W3C//DTD SVG 1.1//EN" "http://www.w3.org/Graphics/SVG/1.1/DTD/svg11.dtd">
<svg version="1.1" id="Layer_1" xmlns="http://www.w3.org/2000/svg" xmlns:xlink="http://www.w3.org/1999/xlink" x="0px" y="0px"
	  viewBox="0 0 3000 3000" enable-background="new 0 0 3000 3000" xml:space="preserve">
<g id="DEN">
	<g id="Group">
		<g id="Group-3" transform="translate(0.000000, 0.077865)">
			<g id="Clip-2">
			</g>
			<defs>
				
					<filter id="Adobe_OpacityMaskFilter" filterUnits="userSpaceOnUse" x="195.668" y="211.305" width="2622.303" height="2621.158">
					<feColorMatrix  type="matrix" values="1 0 0 0 0  0 1 0 0 0  0 0 1 0 0  0 0 0 1 0"/>
				</filter>
			</defs>
			<mask maskUnits="userSpaceOnUse" x="195.668" y="211.305" width="2622.303" height="2621.158" id="mask-2_2_">
				<g filter="url(#Adobe_OpacityMaskFilter)">
					<polygon id="path-1_2_" fill="#FFFFFF" points="195.668,211.32 2817.972,211.32 2817.972,2832.451 195.668,2832.451 					"/>
				</g>
			</mask>
			<path id="Fill-1" mask="url(#mask-2_2_)" fill="#FEC52F" d="M1507.153,211.305c349.359,0,678.305,136.396,926.45,384.498
				c247.68,247.577,384.368,576.849,384.368,925.774c0,723.01-587.762,1310.886-1310.818,1310.886
				c-350.165,0-679.523-136.146-927.536-384.332c-247.122-247.665-383.949-576.765-383.949-926.554
				c0-348.926,136.827-678.199,383.949-925.774C827.632,347.701,1156.986,211.305,1507.153,211.305"/>
		</g>
		<path id="Fill-4" fill="#8A2433" d="M1507.153,2728.101c664.915,0,1205.716-540.778,1205.716-1206.422
			c0-664.422-540.801-1205.698-1205.716-1205.698c-665.688,0-1206.8,541.276-1206.8,1205.698
			C300.353,2187.324,841.466,2728.101,1507.153,2728.101"/>
		<path id="Fill-6" fill="#0A233F" d="M389.951,1521.676c0-615.224,501.163-1115.96,1117.205-1115.96
			c615.936,0,1116.399,500.736,1116.399,1115.96c0,615.741-500.464,1116.647-1116.399,1116.647
			C891.114,2638.323,389.951,2137.417,389.951,1521.676"/>
		<path id="Fill-8" fill="#FEC52F" d="M2386.336,1054.473l24.889-13.909l-80.234-124.428l-22.476,16.216
			c-136.49-172.132-378.808-364.032-609.4-393.107c173.634,79.277,368.944,281.647,488.214,437.646l-125.326,90.996l15.113,23.13
			l-566.113,367.617l-566.09-367.614l15.196-23.131l-126.05-90.995c120.076-155.997,314.914-358.367,488.772-437.646
			c-230.343,29.046-472.879,220.556-608.291,392.467l-23.502-16.881l-80.236,124.094l25.032,14.523l-0.64,1.027
			c-99.709,195.68-172.915,498.187-101.596,719.491c-1.864-191.229,100.933-454.199,193.279-629.247l135.187,76.113l14.004-21.353
			l525.665,330.271l-693.389,450.333l-1.082-1.389l-92.904,25.042l1.001,2.305c-4.554,17.272,3.918,49.257,23.702,79.805
			c19.696,31.379,44.62,52.062,63.286,55.505l1.582,2.524l61.731-74.518l-0.525-1.361l1381.136-868.521l13.499,21.352l135.58-76.113
			c92.18,175.047,195.079,438.014,193.917,629.249C2560.559,1552.656,2486.432,1250.156,2386.336,1054.473"/>
		<path id="Fill-10" fill="#FEC52F" d="M2315.063,1978.698l-1.059,1.392l-638.072-414.268l-111.743,66.138l692.888,436.009
			l-0.779,1.39l61.594,74.56l1.832-2.584c18.643-3.411,43.535-24.105,63.26-55.51c19.197-30.539,28.282-62.524,23.729-79.8
			l1.139-2.31L2315.063,1978.698z"/>
		<polygon id="Fill-12" fill="#FEC52F" points="1620.448,650.815 1572.446,713.489 1506.1,555.071 1506.1,1286.637 
			1729.076,1001.383 1953.445,1059.193 		"/>
		<polygon id="Fill-14" fill="#FEFEFE" points="1620.448,822.331 1620.448,650.838 1572.446,713.479 		"/>
		<polygon id="Fill-16" fill="#FEFEFE" points="1506.094,555.039 1101.418,1048.108 1280.004,1002.68 1506.094,1286.687 		"/>
		<path id="Fill-18" fill="#FEC52F" d="M1268.564,2400.124c57.284-55.007,130.211-88.608,208.888-95.995v-109.654h-302.268
			C1182.324,2274.311,1215.888,2345.866,1268.564,2400.124"/>
		<path id="Fill-20" fill="#FEC52F" d="M1477.444,2501.73v-129.704c-58.674,7.165-112.961,31.847-157.663,72.307
			C1366.259,2475.297,1419.825,2495.535,1477.444,2501.73"/>
		<path id="Fill-22" fill="#FEFEFE" d="M1544.593,1829.883v129.336c58.538-7.08,113.271-31.373,156.979-71.804
			C1655.784,1856.207,1602.521,1835.77,1544.593,1829.883"/>
		<path id="Fill-24" fill="#FEFEFE" d="M1753.208,1931.621c-57.344,54.345-130.082,88.635-208.618,95.554v99.739h301.801
			C1837.16,2051.363,1803.241,1983.137,1753.208,1931.621"/>
		<path id="Fill-26" fill="#FEFEFE" d="M1477.444,1959.201v-129.313c-57.62,5.892-111.18,26.327-156.886,57.563
			C1364.483,1927.831,1418.77,1952.15,1477.444,1959.201"/>
		<path id="Fill-28" fill="#FEC52F" d="M1544.593,2194.475v109.654c78.516,7.384,151.776,40.982,208.618,96.013
			c52.758-54.281,87.543-125.84,93.826-205.667H1544.593L1544.593,2194.475z"/>
		<path id="Fill-30" fill="#FEFEFE" d="M1175.854,2126.923h301.579v-99.719c-78.678-6.969-151.081-41.232-208.868-95.546
			C1218.668,1983.11,1184.72,2051.34,1175.854,2126.923"/>
		<path id="Fill-32" fill="#FEC52F" d="M1544.593,2501.73c57.931-6.195,111.191-26.434,156.979-57.397
			c-43.708-40.46-98.441-65.142-156.979-72.307V2501.73z"/>
	</g>
</g>
</svg>
