<?xml version="1.0" encoding="utf-8"?>
<!-- Generator: Adobe Illustrator 24.0.0, SVG Export Plug-In . SVG Version: 6.00 Build 0)  -->
<svg version="1.1" id="Layer_1" xmlns="http://www.w3.org/2000/svg" xmlns:xlink="http://www.w3.org/1999/xlink" x="0px" y="0px"
	 viewBox="0 0 841.9 595.3" style="enable-background:new 0 0 841.9 595.3;" xml:space="preserve">
<style type="text/css">
	.st0{fill:#C4CED4;}
	.st1{fill:#0C1E24;}
	.st2{fill:#FFFFFF;}
	.st3{fill:#0474BC;}
</style>
<g id="layer1" transform="translate(5.7592782,-176.68814)">
	<g id="g7802" transform="translate(134.97185,67.948001)">
		<g id="g5403" transform="matrix(7.8459447,0,0,-7.8459447,289.27063,247.05202)">
			<path id="path5405" class="st0" d="M7.1-6l0.3,0l0.6-2.6l7-0.6v-1.2L7.1-9.7V-6z M39.4-16.7v11.3l0,0c-0.1,0-6.4,2.2-10.1,3.1
				c-4.3,1-5.6-2.4-5.8-3v4.2c0,0-11.9,2.3-20.4,2.2c-1.5,0-3.7-0.6-4.4-3.6v3.7c0,0-8.2-0.2-11.2-0.5c-0.8-0.1-4-0.4-5.1-4.1l0,3.6
				c0,0-10.8-1.3-20.4-4.4c-1.4-0.5-3.6-2.1-3.6-4.5v-24.8l8.1,2.6v4.3l7.4,1.7l0-4.3c0,0,1.9,0.4,3.6,0.8
				c-3.7-3.2-6.8-7.2-8.6-11.6c4.9,4.2,9.8,8.3,17,10.3l-1.6-3.8c5.8,3.2,13.5,3.3,19.7,1.3l-0.5-1c-3.8,1.6-8.2,1.8-12.5,1.1
				c4.3-1.5,7.8-2.6,11.4-5c-0.2-6.6,5.2-13,12.3-12.9C25.9-50,31.1-36.7,24.8-28.5c0.6-0.5,1.4-0.9,2.6-1.2
				c4-1.1,11.9-3.5,11.9-3.5v10.6l-6.1,1.8l-0.7-3c-0.4,0.1-1,0.2-1,0.4c0,0.1,0,8,0,11.9l0.5-3.1L39.4-16.7L39.4-16.7z"/>
		</g>
		<g id="g5407" transform="matrix(7.8459447,0,0,-7.8459447,507.78095,278.55882)">
			<path id="path5409" class="st1" d="M4.2-5.6l0.7-4.3l5.8-1.8v0l0,0v9.8c0,0-5.8,2-9.6,2.9C-0.1,1.3-3.9,1.5-4-3.2v-16.5
				c0-2.8,1.5-4.7,4.3-5.5c4.3-1.1,10.4-3,10.4-3v9.1L6-17.7l-0.7-2.9c-0.5,0.2-1,0.3-1.5,0.4c-0.6,0.2-0.7,0.5-0.7,0.8v14.2
				C3.1-5.3,4.1-5.5,4.2-5.6"/>
		</g>
		<g id="g5411" transform="matrix(7.8459447,0,0,-7.8459447,364.15465,199.78867)">
			<path id="path5413" class="st1" d="M6.1-6.6v-26.3L7.4-33c0.4,0,3.6-0.6,3.9-0.7l1.8-0.5v26.4C13.2-7.6,8.8-6.9,6.1-6.6"/>
		</g>
		<g id="g5415" transform="matrix(7.8459447,0,0,-7.8459447,290.44043,331.69972)">
			<path id="path5417" class="st1" d="M7.1-4.9v-4.9c-0.1,0-0.8,0-0.9,0.4v4.6L7.1-4.9z M7.8,5.5l0.6-2.6l5.8-0.5v8
				c0,0-8.5,0.8-10.8,0.8c-1.4,0-4.1-0.5-4.2-4.1v-17.2c0-3,1.7-4.7,4.7-4.9c0,0,6.2-0.3,8.6-0.7l1.7-0.3v15.7v0l-8,0.6v5.2L7.8,5.5
				L7.8,5.5z"/>
		</g>
		<g id="g5419" transform="matrix(7.8459447,0,0,-7.8459447,139.3448,286.82154)">
			<path id="path5421" class="st1" d="M9.1-5.5v5c0,0.3,0.7,0.3,0.8,0.3v-5.2C9.6-5.4,9.3-5.4,9.1-5.5 M6.6,5C3.7,4.8,2,2.8,2-0.2
				l0-21.6l1.7,0.3c0.4,0.1,3.6,0.4,4,0.4l1.4,0v9.6c0.3,0,0.6,0,0.8,0.1v-9.7l1.6,0.2c0.3,0,3.5,0.1,4,0.1l1.5-0.1V5.5
				C17,5.5,9.8,5.3,6.6,5"/>
		</g>
		<g id="g5423" transform="matrix(7.8459447,0,0,-7.8459447,66.650547,199.98263)">
			<path id="path5425" class="st1" d="M10-6.6c0,0-6.6-1-8.6-1.4C1-8.1,0.6-8.3,0.2-8.5l0,0.2c0,0-5.5-1.2-9.6-2.5
				c-1.3-0.4-3.1-1.9-3.1-3.8v-23.7l6.7,2.1v19.7c0,0.4,0.3,0.6,0.9,0.8c0,0,0.1,0,0.1,0v-16.1l7,1.7v15.4c0.1,0.7,0.7,0.8,0.7,0.8
				v-20.2c0,0,5.5,1.1,5.8,1.1l1.3,0.1L10-6.6z"/>
		</g>
		<g id="g5427" transform="matrix(7.8459447,0,0,-7.8459447,528.41421,394.24194)">
			<path id="path5429" class="st2" d="M4-4L3.3-7C2.2-6.7,1.7-6.5,0.9-6.3C0.2-6.1-0.2-5.7-0.4-5v15c0.2,0.9,1.4,0.1,2.7-0.1L3,5.5
				l4.2-1.3v8c0,0-5.3,1.8-8.9,2.7c-0.4,0.1-4,0.9-4.1-3.4V-5c0-2.4,1.2-4,3.7-4.7c3.6-0.9,9.3-2.7,9.3-2.7V-5L4-4z"/>
		</g>
		<g id="g5431" transform="matrix(7.8459447,0,0,-7.8459447,418.33793,215.5176)">
			<path id="path5433" class="st2" d="M5.4-6.4L0.1-5.6v-24.5c0,0,4.3-0.7,4.6-0.7L5.4-31L5.4-6.4z"/>
		</g>
		<g id="g5435" transform="matrix(7.8459447,0,0,-7.8459447,284.92002,232.96133)">
			<path id="path5437" class="st2" d="M7.1-6.2c0,0,1.5-0.1,2-0.1l0.6-2.6L14-9.3V-3c0,0-8.9,0.8-10,0.7C3-2.3,0.8-2.5,0.7-5.5
				v-17.2c0-2.5,1.3-3.9,3.9-4c0,0,5.9-0.3,8.5-0.6l1-0.2v13.9v0l-6.5,0.5v-3.5c0,0,0.9-0.1,1.1-0.1v-6.6c-0.8,0.1-2.5-0.1-2.6,1.3
				v15.2C6.1-6.5,6.3-6.2,7.1-6.2"/>
		</g>
		<g id="g5439" transform="matrix(7.8459447,0,0,-7.8459447,153.56479,292.98783)">
			<path id="path5441" class="st2" d="M8.9-5.4c0,0-1.6-0.1-2.4-0.1v5.9c0.1,0.6,0.5,1,1.2,1c0,0,0.8,0.1,1.2,0.1V-5.4z M4.9,5
				C2.4,4.8,1,3.2,0.9,0.7h0V-20l0,0v0L1-20l0.8,0.1c0.7,0.1,3.7,0.4,3.9,0.4l0.7,0v9.6C7.2-9.7,8-9.7,8.9-9.6l0-9.6l0.7,0.1
				c0.3,0,3.5,0.1,4.1,0.1l0.7,0V5.5C14.4,5.5,8.1,5.4,4.9,5"/>
		</g>
		<g id="g5443" transform="matrix(7.8459447,0,0,-7.8459447,59.260477,208.59622)">
			<path id="path5445" class="st2" d="M10.1-6.5L10.1-6.5L10.1-6.5c0,0-6.4-1-7.5-1.3C1.7-8,1.1-8.3,0.3-9.2v0.9c0,0-4.5-1-8.6-2.3
				c-1-0.3-2.5-1.5-2.5-3v-22.5l5,1.6l0,19.1c0,1.6,2.3,1.8,2.8,1.9v-16l5.3,1.3c0,0,0,14,0,14.8c0.2,1.8,2.1,1.6,2.4,1.7l0-20.1
				l2.6,0.5l0,0l2.8,0.5v0.1l0,0V-6.5z"/>
		</g>
		<g id="g5447" transform="matrix(7.8459447,0,0,-7.8459447,552.1121,406.84504)">
			<path id="path5449" class="st3" d="M3.6-3.9L1.4-3.2L0.7-6.1c-1.5,0.4-2,0.6-2.9,0.8C-3.1-5.1-4-4.5-4.1-3.2v14.6
				c0.2,1.1,0.9,1.3,1.8,1.1c0,0,1-0.3,2.1-0.6l0.7-4.3l3.1-1v6.8c-1.7,0.6-5.1,1.7-8.4,2.5c-2.2,0.5-3.4-0.6-3.4-2.8V-3.4
				c0-2.2,1.1-3.5,3.3-4.1c4.4-1.2,8.6-2.4,8.6-2.4L3.6-3.9z"/>
		</g>
		<g id="g5451" transform="matrix(7.8459447,0,0,-7.8459447,376.87293,418.04403)">
			<path id="path5453" class="st3" d="M5.9-3.7c0.3,0,3.9-0.6,4.1-0.7v23.3c-1.2,0.2-2.3,0.4-4.1,0.6V-3.7z"/>
		</g>
		<g id="g5455" transform="matrix(7.8459447,0,0,-7.8459447,293.83772,319.19642)">
			<path id="path5457" class="st3" d="M7-5c0.2,0,1.1-0.1,1.1-0.1v-7.8c-0.6,0-1.3,0.1-1.9,0.1c-0.9,0.1-1.9,0.7-1.9,1.9
				c0,0,0,15,0,15c0.1,1.1,1.2,1.3,1.9,1.2c0,0,1.1-0.1,2.3-0.2l0.6-2.6l3.2-0.3v5.1h0v0c-5.8,0.6-9,0.7-9,0.7c-0.7,0-1.7,0-2.4-0.6
				c-0.4-0.4-0.8-1.1-0.8-2v-17.2c0-2.2,1.1-3.3,3.3-3.4c0,0.1,7.7-0.5,8.8-0.7v12.6v0C10.4-3,9.4-2.9,7-2.8V-5z"/>
		</g>
		<g id="g5459" transform="matrix(7.8459447,0,0,-7.8459447,126.62577,242.50514)">
			<path id="path5461" class="st3" d="M9.2-6c0,0.5,0.3,1.5,1.9,1.7c0.6,0,1.2,0.1,1.9,0.1v-8.2c-1.2-0.1-2.5-0.1-3.7-0.2V-6z
				 M5-5.8c0,0,0-19.5,0-19.8c0.3,0,3.9,0.4,4.2,0.4v9.6c1.2,0.1,2.5,0.2,3.7,0.3v-9.6c0.3,0,4,0.2,4.2,0.2v23.2
				c-2.5-0.1-5.9-0.2-8.8-0.4C6.2-2.3,5-3.6,5-5.8"/>
		</g>
		<g id="g5463" transform="matrix(7.8459447,0,0,-7.8459447,-5.4560732,224.90825)">
			<path id="path5465" class="st3" d="M11-6.3c-1.5-0.3-2.7-1.8-3-3.5v2.9c0,0-3.6-0.8-7.8-2.1c-0.8-0.3-2.1-1.3-2.1-2.5v-21.6
				c0.2,0.1,3.5,1.1,3.7,1.2v18.6c0,1.3,1.1,1.9,2,2.2c0.5,0.1,2,0.4,2,0.4v-16l4.1,1v14.4c0.1,1.1,0.7,1.8,1.8,2.1
				c1,0.2,1.8,0.3,1.8,0.3l0-20.1c0.3,0.1,3.9,0.7,4.2,0.7c0,4.6,0,23.3,0,23.3S12.9-5.8,11-6.3"/>
		</g>
		<g id="g5467" transform="matrix(7.8459447,0,0,-7.8459447,377.37664,404.02803)">
			<path id="path5469" class="st1" d="M5.9-3.9c16.1-6.4,9.4-25.1-2.4-25.3c-6.5-0.1-12,5.9-11.5,12.3c-2.9,2.3-6.6,3.5-10.1,4.5
				c3.2,0.3,7.7-0.5,10.6-1.9l1.1,2.4c-5.4,2-14,2.3-19.2-0.2l1.4,3.4c-5.6-1.2-11.8-4.7-16.4-9C-37.4-11.5-30-5.2-23.4-3.1
				l-0.5-1.5c4.3,1.6,8.8,2.4,13.3,2.7c4.8,0.3,8.8,0,12.1-0.7C1-1.9,0-0.5,0-0.5s2.6-0.7,3.1-0.8C3.4-0.9,3.9,0,3.9,0l0.8,1.3
				c0,0,0.4-2.7,0.5-3.2c0.5-0.1,3-1,3-1L5.9-3.9z"/>
		</g>
		<g id="g5471" transform="matrix(7.8459447,0,0,-7.8459447,393.02616,484.89148)">
			<path id="path5473" class="st0" d="M5.7-2.9C6.3-3.7,7-4.6,7.5-5.5c1.2,0.8,2.2,1.6,3.1,2.7C10-1.7,9-0.5,8.3,0.1
				C7.6-1.1,6.8-2,5.7-2.9 M7.9-6.3c0.3-0.6,0.5-1.3,0.8-2c1,0.3,2,0.5,3,0.6c0,1.5-0.2,2.6-0.7,4C10-4.7,9-5.5,7.9-6.3 M8.8-9.1
				c0.4-1.6,0.5-3.2,0.4-4.8c1.3,1.7,2,3.2,2.3,5.3C10.6-8.6,9.7-8.8,8.8-9.1 M8.1-9.4c-3.2-1.5-4.5-4.9-5.7-7.9
				c2.1,0.2,4,1,5.7,2.3C8.5-13.2,8.5-11.3,8.1-9.4 M7.9-8.6C7.7-7.9,7.5-7.3,7.2-6.7c-4.5-2.7-9.8-4-15.1-3.9
				c1.5-4,5.1-6.7,9.4-6.7C2.9-14,4.4-10.3,7.9-8.6 M6.8-5.9C6.3-5,5.7-4.1,5.1-3.3C0.9-6-3.2-4.4-7.4-2.9c-1-2.2-1.3-4.5-0.7-6.9
				C-3.1-9.9,2.4-8.5,6.8-5.9 M4.6-2.7C-1.2,3.7-12.7,5-20.6,2.8C-15.1,2.9-4.1,2.6-0.2-2C-1.5-1.3-4-0.1-5.6-0.2
				c-0.5-0.6-1-1.3-1.4-1.9C-3.1-3.6,0.8-5,4.6-2.7 M5.2-2.2c1,0.8,1.9,1.7,2.5,2.8C6,2.4,2.5,4.5-6.2,5.1c3.7-0.8,7.2-2,9.1-3.4
				C1.3,2.4,0.3,2.5,0.3,2.5c-0.5-0.1-1.1-0.1-1.6-0.2C1.3,1.2,3.3,0,5.2-2.2"/>
		</g>
		<g id="g5475" transform="matrix(7.8459447,0,0,-7.8459447,341.64388,411.64927)">
			<path id="path5477" class="st0" d="M6.4-3.8l1.8,0.6l1.4-1.5l-0.2,2L11.1-2L9.2-1.3L9,0.7L7.9-1L6-0.5l1.3-1.6L6.4-3.8z"/>
		</g>
		<g id="g5479" transform="matrix(7.8459447,0,0,-7.8459447,282.39677,498.40721)">
			<path id="path5481" class="st3" d="M7.2-2.7C9.9-4,12.1-4,14.9-4.2l-4.5-1.3c2.3-0.1,4.9,0.1,7.2,0.6C12.7-7.3,6.8-7.2,6.8-7.2
				C6.3-5.7,6.5-3.8,7.2-2.7 M7.7-10.2c3,0.1,7.3,0.9,10.5,2.8c-1.9-1.9-3.9-3-7-4.6c3.4,0.6,5,1.9,7.2,3.5c-1.7-1.9-2.6-3.9-3.9-6
				C14.6-14.4,10.7-14.9,7.7-10.2 M17.7-14.7c1.9,0.7,2.9,1.4,3.3,1.7c0.3,0.6,0.4,2,0.4,3.7l-1.2-2l0.4,2
				C18.8-11.5,18.2-12.9,17.7-14.7"/>
		</g>
		<g id="g5483" transform="matrix(7.8459447,0,0,-7.8459447,258.06254,424.35091)">
			<path id="path5485" class="st2" d="M7.5-3.7L8.7-3l1-0.9L9.6-2.6l1.2,0.7L9.4-1.7L9.1-0.3L8.5-1.5L7.1-1.4l1-1L7.5-3.7z"/>
		</g>
		<g id="g5487" transform="matrix(7.8459447,0,0,-7.8459447,135.55288,448.45177)">
			<path id="path5489" class="st2" d="M9.1-3.3l0.8,0.4l0.7-0.6l-0.1,0.9l0.8,0.5L10.4-2l-0.2,0.9L9.7-1.9L8.8-1.8l0.6-0.7L9.1-3.3z
				"/>
		</g>
		<g id="g5491" transform="matrix(7.8459447,0,0,-7.8459447,362.00097,433.67566)">
			<path id="path5493" class="st2" d="M6.1-3.5C6-3.5,5.8-3.4,5.7-3.3C8.2-4,9.9-5,10.8-5.8c-0.1-0.2-0.3-0.4-0.5-0.6
				C9.2-5.2,7.8-4.2,6.1-3.5 M13.9-17.7l0,0.2c0.1,0.7,0.2,1.4,0.2,2c0.2,0,0.4,0.1,0.5,0.1C14.5-16.2,14.3-17,13.9-17.7 M15-13.3
				c-0.3,0-0.6-0.1-0.9-0.2c-0.1,0.5-0.2,1-0.3,1.4c0.3,0.3,0.6,0.6,1,0.9C14.9-11.8,15-12.5,15-13.3 M13.9-9.1
				c-0.3-0.3-0.6-0.6-0.8-0.8c-0.3,0.7-0.7,1.3-1.1,1.9c0.2,0.3,0.4,0.5,0.6,0.8C13.1-7.8,13.6-8.5,13.9-9.1"/>
		</g>
		<g id="g5495" transform="matrix(7.8459447,0,0,-7.8459447,361.28536,170.37831)">
			<path id="path5497" class="st1" d="M6.1-7c0-0.2-0.1-0.3-0.2-0.2c-0.1,0-0.4,0-0.6,0.1c-0.1,0-0.2,0.1-0.2,0.3V-3
				c0,0.2,0.1,0.3,0.2,0.2c0.1,0,0.4-0.1,0.5-0.1c0.1,0,0.3-0.1,0.3-0.2V-7z M6.6-1.8c-0.4,0.1-2,0.3-2.1,0.3c-0.9,0-1-0.7-1-0.9
				v-4.6c0-1,0.8-1.2,1.1-1.2c0.5-0.1,1.8-0.2,2.2-0.3c0.5,0,1,0.3,1,0.9V-3C7.8-2.8,7.7-2,6.6-1.8"/>
		</g>
		<g id="g5499" transform="matrix(7.8459447,0,0,-7.8459447,273.16837,113.88688)">
			<path id="path5501" class="st1" d="M7.3-7.7c-0.9,0.1-3,0.1-3,0.1v-6.9L6-14.6v5.7c0,0,0.3,0,0.7,0C7-8.9,7.1-9,7.1-9.2v-5.4
				l1.6-0.1c0,0,0,5.4,0,5.8C8.7-8.5,8.4-7.8,7.3-7.7"/>
		</g>
		<g id="g5503" transform="matrix(7.8459447,0,0,-7.8459447,224.69298,139.77598)">
			<path id="path5505" class="st1" d="M7.9-7.4l-1.1,0v1.7c0,0.1,0.1,0.3,0.5,0.3h0.6V-7.4z M6.5-4.2c-0.8,0-1.3-0.4-1.3-1.2
				c0-0.4,0-5.7,0-5.7l1.6,0v2.7l1.1,0v-2.7l1.7,0v6.9c0,0-1.3,0-1.8,0H6.5z"/>
		</g>
		<g id="g5507" transform="matrix(7.8459447,0,0,-7.8459447,193.56812,153.74804)">
			<path id="path5509" class="st1" d="M8.3-7.2L7-7.2L6.7-8.4l-0.4,0v5.8L4.6-2.7v-6.9c0,0,0.7,0,1.9,0.1c1.2,0,1.9,0,1.9,0V-7.2z"
				/>
		</g>
		<g id="g5511" transform="matrix(7.8459447,0,0,-7.8459447,136.22914,142.02181)">
			<path id="path5513" class="st1" d="M9.1-7.4c-0.3,0-0.7-0.1-0.7-0.1v1.8c0.2,0,0.5,0.1,0.7,0.1c0.3,0,0.4-0.2,0.4-0.3
				c0-0.1,0-1.1,0-1.2v0C9.4-7,9.4-7.3,9.1-7.4 M11.1-8.3L11.1-8.3c0,0.2-0.1,0.5-0.4,0.6c0.2,0.1,0.4,0.3,0.4,0.6v1.8
				c0,0.4-0.3,1-1.1,1c-0.9,0-3.2-0.3-3.2-0.3v-6.8l1.6,0.1v2.8c0.2,0,0.7,0.1,0.8,0.1c0.2,0,0.3-0.1,0.3-0.2v-2.6l1.6,0.1v0V-8.3z"
				/>
		</g>
		<g id="g5515" transform="matrix(7.8459447,0,0,-7.8459447,92.222047,169.66464)">
			<path id="path5517" class="st1" d="M9.7-7C9.6-7,9.3-7.1,9.1-7.1c-0.2,0-0.2,0.2-0.2,0.2c0,0,0,3.8,0,3.8c0,0.1,0,0.2,0.2,0.2
				c0.1,0,0.5,0.1,0.6,0.1c0.1,0,0.2-0.1,0.2-0.2c0-0.2,0-3.8,0-3.9C9.9-6.8,9.8-7,9.7-7 M10.5-1.3c-0.2,0-1.7-0.2-2.1-0.3
				C8-1.7,7.2-2,7.2-2.9v-4.7c0-0.4,0.2-0.9,0.9-0.8c0.2,0,1.7,0.2,2.3,0.3c0.8,0.1,1.1,0.7,1.1,1.2v4.6C11.5-1.3,10.6-1.3,10.5-1.3
				"/>
		</g>
		<g id="g5519" transform="matrix(7.8459447,0,0,-7.8459447,316.87028,165.76238)">
			<path id="path5521" class="st1" d="M6.7-7c0-0.1-0.1-0.2-0.3-0.2L5.6-7.1v4.5c0,0,0.4,0,0.7-0.1c0.3,0,0.4-0.1,0.4-0.3V-7z
				 M7.1-1.6C6.7-1.5,4-1.2,4-1.2v-6.9c0,0,2.5-0.2,3.1-0.3c0.6-0.1,1.3,0.1,1.3,1v4.6C8.4-1.9,7.7-1.7,7.1-1.6"/>
		</g>
	</g>
</g>
</svg>
