<svg width="104" height="26" viewBox="0 0 104 26" fill="none" xmlns="http://www.w3.org/2000/svg">
<rect width="26" height="26" rx="4.33333" fill="#343434"/>
<g clip-path="url(#clip0_212_506)">
<path d="M9.03855 10.9228H16.7937V14.5334H9.03855V10.9228ZM8.396 15.4378C8.396 14.9393 8.80013 14.5352 9.29866 14.5352H16.5201C17.0186 14.5352 17.4228 14.9393 17.4228 15.4378V17.2431C17.4228 17.7416 17.0186 18.1458 16.5201 18.1458H9.29866C8.80013 18.1458 8.396 17.7416 8.396 17.2431V15.4378ZM8.396 8.2151C8.396 7.71658 8.80013 7.31244 9.29866 7.31244H16.5201C17.0186 7.31244 17.4228 7.71658 17.4228 8.2151V10.0204C17.4228 10.5189 17.0186 10.923 16.5201 10.923H9.29866C8.80013 10.923 8.396 10.5189 8.396 10.0204V8.2151Z" stroke="#3FCF8E" stroke-width="0.8125" stroke-miterlimit="10" stroke-linecap="round" stroke-linejoin="round"/>
</g>
<path d="M35.4268 20V5.45455H38.0618V17.7912H44.468V20H35.4268ZM46.6413 20V9.09091H49.2124V20H46.6413ZM47.9339 7.54261C47.5268 7.54261 47.1764 7.40767 46.8828 7.13778C46.5893 6.86316 46.4425 6.53409 46.4425 6.15057C46.4425 5.76231 46.5893 5.43324 46.8828 5.16335C47.1764 4.88873 47.5268 4.75142 47.9339 4.75142C48.3459 4.75142 48.6963 4.88873 48.9851 5.16335C49.2786 5.43324 49.4254 5.76231 49.4254 6.15057C49.4254 6.53409 49.2786 6.86316 48.9851 7.13778C48.6963 7.40767 48.3459 7.54261 47.9339 7.54261ZM54.4272 13.608V20H51.8562V9.09091H54.3136V10.9446H54.4414C54.6924 10.3338 55.0924 9.84848 55.6417 9.48864C56.1957 9.12879 56.8799 8.94886 57.6942 8.94886C58.4471 8.94886 59.1029 9.10985 59.6616 9.43182C60.225 9.75379 60.6606 10.2202 60.9684 10.831C61.2809 11.4418 61.4348 12.1828 61.43 13.054V20H58.859V13.4517C58.859 12.7225 58.6696 12.152 58.2908 11.7401C57.9168 11.3281 57.3983 11.1222 56.7354 11.1222C56.2856 11.1222 55.8855 11.2216 55.5352 11.4205C55.1895 11.6146 54.9173 11.8963 54.7184 12.2656C54.5243 12.6349 54.4272 13.0824 54.4272 13.608ZM66.3874 16.5767L66.3803 13.473H66.7923L70.7127 9.09091H73.717L68.8945 14.4602H68.3619L66.3874 16.5767ZM64.0437 20V5.45455H66.6147V20H64.0437ZM70.8903 20L67.3391 15.0355L69.0721 13.2244L73.9656 20H70.8903ZM75.4304 20V9.09091H78.0014V20H75.4304ZM76.723 7.54261C76.3158 7.54261 75.9654 7.40767 75.6719 7.13778C75.3783 6.86316 75.2315 6.53409 75.2315 6.15057C75.2315 5.76231 75.3783 5.43324 75.6719 5.16335C75.9654 4.88873 76.3158 4.75142 76.723 4.75142C77.1349 4.75142 77.4853 4.88873 77.7741 5.16335C78.0677 5.43324 78.2145 5.76231 78.2145 6.15057C78.2145 6.53409 78.0677 6.86316 77.7741 7.13778C77.4853 7.40767 77.1349 7.54261 76.723 7.54261ZM86.1708 9.09091V11.0795H79.7219V9.09091H86.1708ZM81.3342 20V8.06108C81.3342 7.32718 81.4857 6.71638 81.7887 6.22869C82.0965 5.741 82.5084 5.37642 83.0245 5.13494C83.5406 4.89347 84.1135 4.77273 84.7433 4.77273C85.1883 4.77273 85.5837 4.80824 85.9293 4.87926C86.275 4.95028 86.5307 5.0142 86.6964 5.07102L86.185 7.05966C86.0761 7.02651 85.9388 6.99337 85.7731 6.96023C85.6074 6.92235 85.4227 6.90341 85.2191 6.90341C84.7409 6.90341 84.4023 7.01941 84.2035 7.25142C84.0094 7.47869 83.9123 7.8054 83.9123 8.23153V20H81.3342ZM89.7823 24.0909C89.4319 24.0909 89.1076 24.0625 88.8093 24.0057C88.5157 23.9536 88.2814 23.892 88.1062 23.821L88.7028 21.8182C89.0768 21.9271 89.4106 21.9792 89.7042 21.9744C89.9978 21.9697 90.2558 21.8774 90.4783 21.6974C90.7056 21.5223 90.8974 21.2287 91.0536 20.8168L91.2738 20.2273L87.3178 9.09091H90.0451L92.5593 17.3295H92.6729L95.1942 9.09091H97.9286L93.5607 21.321C93.3571 21.8987 93.0872 22.3935 92.7511 22.8054C92.4149 23.2221 92.003 23.5393 91.5153 23.7571C91.0323 23.9796 90.4547 24.0909 89.7823 24.0909Z" fill="white"/>
<path d="M100.608 20.1562C100.177 20.1562 99.8078 20.0047 99.5 19.7017C99.1922 19.3987 99.0407 19.0294 99.0455 18.5938C99.0407 18.1676 99.1922 17.803 99.5 17.5C99.8078 17.197 100.177 17.0455 100.608 17.0455C101.025 17.0455 101.387 17.197 101.695 17.5C102.007 17.803 102.166 18.1676 102.17 18.5938C102.166 18.8826 102.09 19.1454 101.943 19.3821C101.801 19.6188 101.612 19.8082 101.375 19.9503C101.143 20.0876 100.887 20.1562 100.608 20.1562Z" fill="#3FCF8E"/>
<defs>
<clipPath id="clip0_212_506">
<rect width="13.5417" height="13.5417" fill="white" transform="translate(6.229 6.22919)"/>
</clipPath>
</defs>
</svg>
