<svg width="296" height="193" viewBox="0 0 296 193" fill="none" xmlns="http://www.w3.org/2000/svg">
<path d="M296 165.473H0V165.621H296V165.473Z" fill="#333333"/>
<path d="M266.341 174.998H253.506V175.146H266.341V174.998Z" fill="#333333"/>
<path d="M204.045 171.931H183.852V172.079H204.045V171.931Z" fill="#333333"/>
<path d="M261.143 169.504H234.781V169.652H261.143V169.504Z" fill="#333333"/>
<path d="M102.428 172.488H95.833V172.636H102.428V172.488Z" fill="#333333"/>
<path d="M90.5582 172.488H67.8313V172.636H90.5582V172.488Z" fill="#333333"/>
<path d="M55.654 169.99H39.2556V170.138H55.654V169.99Z" fill="#333333"/>
<path d="M127.913 58.0129L128.18 50.234L123.408 48.6711C123.203 46.0349 122.775 43.4208 122.13 40.8567L126.179 37.8967L123.432 30.5914L118.424 30.994C117.236 28.6403 115.85 26.3924 114.28 24.2748L116.873 19.9473L111.545 14.2582L107.069 16.5492C105.057 14.8289 102.906 13.2766 100.64 11.9079L101.362 6.93511L94.2583 3.71463L91.0023 7.52711C88.4904 6.7236 85.9162 6.12957 83.3063 5.75111L82.1223 0.878952L74.3197 0.612549L72.7805 5.38999C70.1469 5.59704 67.5351 6.02278 64.972 6.66279L61.9647 2.63719L54.6594 5.36631L55.0619 10.3746C52.7095 11.5801 50.462 12.9802 48.3427 14.5601L43.9856 11.9079L38.2728 17.2359L40.5639 21.7351C38.8431 23.7376 37.2982 25.8846 35.9463 28.1524L30.9794 27.4065L27.7352 34.5105L31.5714 37.7605C30.7622 40.2709 30.168 42.8455 29.7954 45.4565L24.864 46.6938L24.5976 54.4727L29.3928 56.0356C29.5912 58.6702 30.017 61.2828 30.6656 63.8441L26.6163 66.8041L29.3691 74.1153L34.3775 73.7127C35.5619 76.0681 36.9484 78.3162 38.5215 80.4319L35.9226 84.7594L41.2506 90.4485L45.7261 88.1575C47.7333 89.8774 49.8798 91.4279 52.1434 92.7929L51.3975 97.7597L58.5015 100.986L61.7752 97.1737C64.287 97.9844 66.8609 98.5883 69.4712 98.9793L70.6552 103.851L78.4578 104.118L79.997 99.3404C82.6323 99.1309 85.2459 98.7052 87.8114 98.0676L90.7714 102.093L98.0767 99.3641L97.6978 94.3557C100.046 93.1426 102.293 91.743 104.417 90.1703L108.721 92.7633L114.434 87.4353L112.143 82.9361C113.864 80.934 115.409 78.787 116.76 76.5188L121.727 77.2647L124.971 70.1607L121.135 66.9047C121.958 64.3963 122.562 61.8213 122.941 59.2087L127.913 58.0129ZM75.3498 83.2143C69.245 83.0081 63.3386 80.9959 58.3776 77.4324C53.4166 73.8688 49.624 68.914 47.4794 63.1946C45.3348 57.4752 44.9347 51.2483 46.3296 45.3015C47.7245 39.3547 50.8518 33.9552 55.3159 29.786C59.78 25.6168 65.3803 22.8652 71.4085 21.8793C77.4366 20.8935 83.6217 21.7176 89.1814 24.2474C94.7411 26.7773 99.4256 30.8992 102.642 36.0918C105.859 41.2844 107.463 47.3144 107.253 53.4189C106.972 61.6001 103.453 69.3348 97.4704 74.9222C91.4878 80.5096 83.5311 83.4923 75.3498 83.2143V83.2143Z" fill="#252525"/>
<path d="M261.072 32.2845L263.031 30.4553L262.256 28.9101C262.848 28.2178 263.38 27.4772 263.848 26.6961L265.565 26.9506L266.672 24.4997L265.358 23.3809C265.641 22.5143 265.849 21.625 265.98 20.7228L267.667 20.3025L267.75 17.6148L266.104 17.082C266.032 16.1717 265.885 15.2689 265.666 14.3825L267.057 13.3465L266.11 10.8305L264.387 10.9666C263.972 10.1552 263.491 9.37903 262.949 8.64598L263.842 7.16598L262.001 5.20054L260.462 5.9879C259.769 5.39766 259.028 4.86506 258.248 4.39542L258.497 2.67862L256.052 1.55974L254.927 2.8799C254.059 2.60956 253.17 2.41155 252.269 2.2879L251.849 0.606625L249.161 0.505981L248.622 2.16358C247.715 2.23289 246.816 2.37945 245.934 2.60166L244.904 1.21046L242.382 2.15174L242.525 3.88038C241.711 4.29176 240.934 4.77309 240.204 5.31894L238.712 4.42502L236.747 6.2543L237.51 7.7639C236.914 8.45425 236.38 9.19506 235.912 9.97798L234.201 9.72342L233.088 12.1743L234.408 13.2991C234.135 14.1644 233.936 15.0518 233.816 15.9513L232.123 16.3716L232.04 19.0593L233.692 19.5921C233.759 20.5025 233.904 21.4056 234.124 22.2916L232.727 23.3217L233.674 25.8377L235.403 25.7074C235.818 26.5189 236.299 27.295 236.841 28.0281L235.947 29.5081L237.789 31.4735L239.328 30.6861C240.02 31.2783 240.76 31.811 241.542 32.2786L241.287 33.9895L243.738 35.1084L244.863 33.7941C245.732 34.0617 246.621 34.2597 247.521 34.3861L247.941 36.0674L250.629 36.1681L251.168 34.5105C252.075 34.4416 252.974 34.295 253.855 34.0724L254.885 35.4636L257.407 34.5223L257.271 32.7937C258.083 32.3817 258.857 31.9004 259.586 31.3551L261.072 32.2845ZM247.089 20.9596C246.572 20.4056 246.231 19.7108 246.109 18.963C245.987 18.2152 246.089 17.448 246.404 16.7584C246.718 16.0689 247.229 15.488 247.873 15.0893C248.518 14.6906 249.266 14.4919 250.023 14.5184C250.78 14.5449 251.513 14.7954 252.128 15.2382C252.742 15.681 253.212 16.2963 253.477 17.0061C253.742 17.7159 253.791 18.4884 253.617 19.2258C253.443 19.9633 253.054 20.6326 252.5 21.149C252.132 21.496 251.699 21.7665 251.225 21.9449C250.752 22.1234 250.248 22.2062 249.743 22.1885C249.238 22.1709 248.741 22.0532 248.281 21.8423C247.821 21.6313 247.408 21.3313 247.065 20.9596H247.089Z" fill="#252525"/>
<path d="M189.44 112.157L183.319 107.924C182.719 105.72 181.893 103.584 180.856 101.548L182.425 95.3917L173.545 85.8842L167.293 87.0267C165.332 85.8517 163.255 84.8817 161.095 84.1318V84.1318L157.294 77.7323L144.27 77.2883L140.043 83.4096C137.842 84.0092 135.708 84.8325 133.674 85.8664L127.517 84.2976L118.009 93.1776L119.152 99.4173C117.978 101.382 117.01 103.464 116.263 105.627L109.863 109.428L109.419 122.452L115.547 126.679C116.137 128.895 116.96 131.042 118.003 133.084V133.084L116.417 139.188L125.297 148.695L131.507 147.559C133.483 148.735 135.573 149.707 137.747 150.46V150.46L141.541 156.847L154.565 157.297L158.786 151.176C161.007 150.576 163.162 149.751 165.215 148.713L171.337 150.276L180.85 141.396L179.707 135.156C180.885 133.191 181.853 131.108 182.596 128.94V128.94L188.996 125.14L189.44 112.157ZM148.918 131.924C146.026 131.825 143.229 130.871 140.88 129.183C138.531 127.494 136.735 125.147 135.72 122.438C134.704 119.73 134.515 116.78 135.175 113.964C135.836 111.147 137.317 108.59 139.431 106.615C141.545 104.64 144.197 103.336 147.052 102.868C149.907 102.401 152.837 102.79 155.47 103.987C158.104 105.184 160.324 107.135 161.848 109.594C163.373 112.052 164.135 114.908 164.037 117.799C163.901 121.677 162.232 125.342 159.396 127.99C156.561 130.639 152.79 132.053 148.912 131.924H148.918Z" fill="#252525"/>
<path d="M203.382 75.2519H203.34L193.087 74.9026C192.879 74.8988 192.676 74.8426 192.496 74.739C192.315 74.6355 192.164 74.4882 192.057 74.3106L189.292 69.6634C187.802 69.1183 186.36 68.449 184.982 67.6624L180.56 68.4261C180.354 68.4638 180.142 68.4489 179.943 68.3826C179.744 68.3164 179.566 68.201 179.423 68.0472L172.42 60.5525C172.273 60.3973 172.169 60.2067 172.117 59.9993C172.065 59.7919 172.067 59.5747 172.124 59.3685L173.243 54.9818C172.55 53.5603 171.983 52.0805 171.55 50.5596L167.092 47.4812C166.919 47.3625 166.779 47.202 166.685 47.0147C166.591 46.8273 166.545 46.6192 166.553 46.4096L166.903 36.1562C166.909 35.9492 166.967 35.747 167.07 35.5675C167.173 35.3879 167.319 35.2363 167.495 35.1261L172.154 32.3615C172.691 30.8748 173.358 29.4386 174.149 28.0695L173.332 23.6117C173.293 23.4048 173.308 23.1915 173.374 22.9918C173.441 22.792 173.556 22.6123 173.711 22.4692L181.205 15.4717C181.36 15.3242 181.55 15.219 181.758 15.1661C181.965 15.1132 182.183 15.1145 182.389 15.1698L186.794 16.2946C188.212 15.601 189.687 15.0325 191.204 14.5956L194.283 10.1378C194.397 9.96073 194.557 9.81743 194.745 9.72273C194.933 9.62802 195.144 9.58533 195.354 9.59908L205.602 9.95428C205.81 9.95869 206.014 10.0152 206.195 10.1186C206.376 10.222 206.528 10.369 206.638 10.5463L209.402 15.1994C210.882 15.7426 212.312 16.412 213.676 17.2004L218.152 16.3775C218.358 16.3392 218.57 16.3539 218.769 16.4202C218.968 16.4864 219.147 16.6021 219.289 16.7564L226.292 24.2511C226.438 24.4069 226.542 24.5975 226.594 24.8047C226.645 25.0119 226.643 25.2288 226.588 25.4351L225.463 29.8336C226.157 31.2523 226.727 32.7278 227.168 34.244L231.62 37.3224C231.793 37.4411 231.933 37.6016 232.027 37.7889C232.121 37.9763 232.167 38.1844 232.159 38.394L231.809 48.6415C231.802 48.8493 231.745 49.0522 231.642 49.2328C231.538 49.4133 231.393 49.5659 231.217 49.6775L226.558 52.4421C226.017 53.9254 225.35 55.3594 224.563 56.7282L225.38 61.1919C225.419 61.3979 225.404 61.6103 225.338 61.8091C225.271 62.0079 225.156 62.1867 225.001 62.3285L217.459 69.3319C217.304 69.4789 217.114 69.5833 216.906 69.6352C216.699 69.687 216.481 69.6845 216.275 69.6279L211.895 68.509C210.467 69.1994 208.984 69.7677 207.46 70.208L204.412 74.6599C204.302 74.8356 204.15 74.9815 203.971 75.0848C203.791 75.1881 203.589 75.2454 203.382 75.2519V75.2519ZM193.856 72.428L202.736 72.73L205.696 68.4735C205.86 68.2251 206.112 68.0475 206.401 67.9762C208.067 67.5206 209.683 66.8999 211.226 66.1232V66.1232C211.494 65.9937 211.8 65.9622 212.09 66.0344L216.234 67.0941L222.746 61.0261L222 56.746C221.942 56.4468 221.997 56.137 222.154 55.8757C223.033 54.4098 223.757 52.8563 224.315 51.2404C224.409 50.9474 224.607 50.699 224.871 50.5418L229.329 47.9015L229.631 39.0215L225.368 36.0615C225.144 35.9081 224.976 35.6857 224.889 35.428C224.889 35.3984 224.889 35.3629 224.889 35.3274C224.433 33.6911 223.814 32.1045 223.042 30.5914C222.905 30.3205 222.871 30.0091 222.947 29.7152L224.013 25.5239L217.945 19.0119L213.688 19.7933C213.391 19.8472 213.084 19.7926 212.824 19.6394C211.355 18.7584 209.8 18.0303 208.183 17.4668C208.09 17.437 208.001 17.3973 207.916 17.3484C207.746 17.2419 207.604 17.0956 207.502 16.9221L204.832 12.4525L195.952 12.1447L192.992 16.413C192.815 16.6632 192.555 16.8418 192.258 16.9162C190.609 17.3667 189.01 17.9836 187.486 18.7573C187.218 18.8944 186.908 18.9281 186.616 18.852L182.425 17.7864L175.913 23.8544L176.694 28.0991C176.741 28.3668 176.701 28.6424 176.582 28.8864L176.523 28.9871C175.642 30.4586 174.918 32.0181 174.362 33.6402C174.264 33.9183 174.071 34.1531 173.817 34.3032L169.359 36.9495L169.057 45.8295L173.326 48.7895C173.569 48.956 173.745 49.2036 173.823 49.488C174.267 51.1504 174.884 52.7616 175.664 54.2951C175.706 54.3824 175.74 54.4736 175.765 54.5674C175.809 54.7622 175.809 54.9646 175.765 55.1594L174.699 59.3034L180.767 65.8154L184.994 65.0399C185.289 64.9859 185.594 65.0405 185.852 65.1938C187.332 66.0732 188.897 66.8011 190.523 67.3664C190.817 67.4536 191.065 67.6509 191.216 67.917L193.856 72.428ZM199.344 61.1978C199.125 61.1978 198.906 61.1978 198.687 61.1978C193.766 61.1112 189.078 59.0842 185.644 55.5582C182.21 52.0322 180.307 47.2925 180.351 42.3706C180.394 37.4488 182.379 32.7433 185.875 29.2783C189.371 25.8132 194.094 23.8692 199.016 23.8692C203.938 23.8692 208.66 25.8132 212.156 29.2783C215.652 32.7433 217.637 37.4488 217.681 42.3706C217.724 47.2925 215.821 52.0322 212.387 55.5582C208.953 59.0842 204.265 61.1112 199.344 61.1978ZM199.344 26.2165C195.044 26.2907 190.946 28.0607 187.945 31.1412C184.943 34.2217 183.279 38.3632 183.316 42.6643C183.353 46.9654 185.088 51.0776 188.143 54.1059C191.197 57.1342 195.324 58.8333 199.625 58.8333C203.927 58.8333 208.054 57.1342 211.108 54.1059C214.163 51.0776 215.897 46.9654 215.934 42.6643C215.971 38.3632 214.308 34.2217 211.306 31.1412C208.304 28.0607 204.207 26.2907 199.907 26.2165H199.344Z" fill="#252525"/>
<path d="M148 192.208C211.393 192.208 262.783 189.207 262.783 185.506C262.783 181.805 211.393 178.805 148 178.805C84.6071 178.805 33.217 181.805 33.217 185.506C33.217 189.207 84.6071 192.208 148 192.208Z" fill="#252525"/>
<path d="M131.69 119.557C132.513 106.296 131.004 82.1843 155.933 85.3811C182.65 88.797 175.007 120.043 175.007 120.043L131.69 119.557Z" fill="#333333"/>
<path d="M148.894 111.589C154.903 111.589 159.775 106.717 159.775 100.708C159.775 94.6987 154.903 89.8271 148.894 89.8271C142.885 89.8271 138.013 94.6987 138.013 100.708C138.013 106.717 142.885 111.589 148.894 111.589Z" fill="white"/>
<path d="M150.327 89.8449C145.17 88.9687 139.671 92.7634 139.12 96.6114L159.55 98.494C158.828 94.1073 154.411 90.5435 150.327 89.8449Z" fill="#333333"/>
<path d="M157.224 100.436C157.076 103.283 155.524 105.515 153.76 105.42C151.996 105.326 150.682 102.952 150.8 100.092C150.919 97.2329 152.499 95.0129 154.264 95.1077C156.028 95.2024 157.366 97.5941 157.224 100.436Z" fill="#333333"/>
<path d="M148.894 112.181C146.625 112.181 144.407 111.508 142.52 110.247C140.633 108.987 139.163 107.195 138.294 105.099C137.426 103.002 137.199 100.695 137.641 98.4698C138.084 96.2443 139.177 94.2 140.781 92.5955C142.386 90.9909 144.43 89.8982 146.656 89.4556C148.881 89.0129 151.188 89.2401 153.284 90.1084C155.381 90.9768 157.173 92.4473 158.433 94.334C159.694 96.2208 160.367 98.4389 160.367 100.708C160.364 103.75 159.154 106.666 157.003 108.817C154.852 110.968 151.936 112.178 148.894 112.181V112.181ZM148.894 90.425C146.859 90.425 144.869 91.0286 143.177 92.1594C141.485 93.2903 140.166 94.8975 139.388 96.7779C138.609 98.6583 138.406 100.727 138.803 102.723C139.201 104.719 140.181 106.553 141.621 107.991C143.06 109.43 144.894 110.41 146.89 110.806C148.887 111.202 150.956 110.998 152.836 110.218C154.715 109.438 156.322 108.119 157.452 106.426C158.582 104.733 159.184 102.743 159.183 100.708C159.18 97.9808 158.095 95.3662 156.166 93.4382C154.237 91.5103 151.621 90.4266 148.894 90.425V90.425Z" fill="#4F4F4F"/>
<path opacity="0.3" d="M171.97 119.226H171.899C171.861 119.218 171.825 119.202 171.793 119.179C171.762 119.157 171.735 119.128 171.714 119.095C171.694 119.062 171.68 119.025 171.674 118.986C171.669 118.948 171.671 118.908 171.68 118.871C171.68 118.794 173.586 110.766 171.627 102.65C171.608 102.571 171.621 102.489 171.663 102.42C171.706 102.351 171.773 102.302 171.852 102.283C171.93 102.264 172.013 102.277 172.082 102.319C172.151 102.361 172.2 102.429 172.219 102.508C174.214 110.796 172.29 118.93 172.272 119.007C172.255 119.072 172.215 119.13 172.16 119.17C172.105 119.21 172.038 119.23 171.97 119.226V119.226Z" fill="white"/>
<path opacity="0.3" d="M170.319 98.198C170.262 98.1973 170.206 98.1809 170.158 98.1506C170.11 98.1203 170.071 98.0772 170.046 98.0263C169.311 96.3999 168.367 94.8757 167.24 93.4916C167.191 93.431 167.168 93.3534 167.176 93.2758C167.183 93.1983 167.221 93.1268 167.282 93.0772C167.312 93.0519 167.347 93.033 167.384 93.0214C167.422 93.0098 167.461 93.0059 167.5 93.0097C167.54 93.0136 167.578 93.0252 167.612 93.0439C167.647 93.0626 167.677 93.088 167.702 93.1186C168.857 94.5429 169.826 96.1085 170.585 97.7776C170.602 97.8125 170.612 97.8505 170.613 97.8892C170.615 97.9279 170.61 97.9666 170.596 98.003C170.583 98.0394 170.563 98.0728 170.536 98.1012C170.51 98.1296 170.478 98.1524 170.443 98.1684C170.404 98.1865 170.362 98.1966 170.319 98.198V98.198Z" fill="white"/>
<path d="M76.2083 181.765H75.9892C75.2042 181.743 74.46 181.41 73.9205 180.839C73.3809 180.269 73.0901 179.507 73.1121 178.722C73.1341 177.937 73.467 177.193 74.0377 176.653C74.6083 176.114 75.37 175.823 76.155 175.845H76.2083C77.9192 175.845 82.0336 173.767 90.6412 160.198C90.8697 159.838 91.1734 159.531 91.5315 159.299C91.8896 159.067 92.2937 158.915 92.7159 158.854C93.1382 158.793 93.5687 158.823 93.978 158.944C94.3873 159.065 94.7656 159.272 95.0872 159.553C101.847 165.364 109.219 170.422 117.074 174.637C117.438 174.802 117.764 175.04 118.033 175.334C118.303 175.629 118.51 175.975 118.642 176.352C118.774 176.729 118.829 177.129 118.802 177.527C118.776 177.925 118.669 178.314 118.488 178.671C118.308 179.027 118.057 179.343 117.751 179.599C117.445 179.856 117.09 180.048 116.708 180.164C116.326 180.28 115.924 180.317 115.527 180.274C115.13 180.231 114.746 180.107 114.398 179.912C107.098 176.033 100.198 171.444 93.7966 166.213C86.5801 177.076 81.2284 181.765 76.2083 181.765Z" fill="#333333"/>
<path d="M94.5248 159.02H94.2702C93.805 158.953 93.3855 158.703 93.1037 158.327C92.8218 157.951 92.7006 157.479 92.7666 157.013C93.1869 154.053 92.6659 143.024 88.9304 134.44C88.7647 134.061 88.7367 133.636 88.8513 133.238C88.9659 132.84 89.2158 132.495 89.5579 132.262C97.6683 126.738 114.943 126.075 115.677 126.052C115.91 126.044 116.143 126.082 116.361 126.164C116.58 126.246 116.78 126.37 116.95 126.53C117.121 126.689 117.258 126.881 117.354 127.093C117.451 127.306 117.504 127.535 117.512 127.768C117.52 128.002 117.482 128.234 117.4 128.452C117.318 128.671 117.193 128.871 117.034 129.041C116.874 129.212 116.683 129.349 116.47 129.446C116.258 129.542 116.029 129.596 115.795 129.604C115.636 129.604 100.534 130.196 92.7784 134.458C96.0818 143.006 96.8336 153.656 96.283 157.51C96.2192 157.931 96.0067 158.314 95.6841 158.591C95.3614 158.869 94.9501 159.021 94.5248 159.02Z" fill="#333333"/>
<path d="M97.5084 156.723C96.3244 153.935 90.9964 154.249 87.8766 156.64C86.2072 157.913 83.9457 161.755 83.7326 163.152C83.6615 163.484 83.6722 163.829 83.7636 164.155C83.855 164.482 84.0245 164.782 84.2575 165.029C84.4904 165.276 84.7799 165.463 85.1009 165.573C85.422 165.683 85.7651 165.714 86.1006 165.662C88.143 165.485 90.9432 162.519 90.9432 162.519C89.0784 164.348 91.4878 165.639 95.0872 162.992C97.0526 161.518 98.8286 159.843 97.5084 156.723Z" fill="#4F4F4F"/>
<path d="M199.332 120.339C199.305 120.345 199.277 120.345 199.25 120.339C199.212 120.329 199.176 120.311 199.146 120.287C199.115 120.263 199.089 120.232 199.071 120.198C199.052 120.164 199.04 120.126 199.036 120.087C199.032 120.048 199.037 120.009 199.048 119.972C199.836 117.225 200.694 115.549 201.825 114.644C201.648 114.007 201.681 113.33 201.919 112.714C202.195 111.994 202.682 111.375 203.317 110.938C203.144 110.751 203.022 110.525 202.961 110.278C202.9 110.032 202.902 109.774 202.967 109.529C203.182 108.787 203.625 108.132 204.234 107.658C204.015 107.412 203.894 107.094 203.897 106.764C203.897 104.988 207.159 102.312 210.859 101.803C210.937 101.792 211.017 101.813 211.08 101.861C211.143 101.908 211.185 101.979 211.196 102.058C211.207 102.136 211.186 102.216 211.139 102.279C211.091 102.342 211.02 102.384 210.942 102.395C207.425 102.875 204.477 105.42 204.489 106.764C204.488 106.965 204.564 107.158 204.702 107.303C205.498 106.763 206.394 106.387 207.337 106.197C208.281 106.007 209.252 106.006 210.196 106.196C212.013 106.545 212.753 106.93 212.67 107.48C212.504 108.516 208.639 108.736 206.046 108.428C205.581 108.385 205.129 108.255 204.714 108.043C204.155 108.44 203.74 109.007 203.53 109.659C203.479 109.832 203.479 110.015 203.531 110.187C203.582 110.36 203.683 110.513 203.82 110.63C204.921 110.038 206.466 109.825 208.508 110.275C211.19 110.867 211.291 111.192 211.356 111.388C211.377 111.457 211.378 111.53 211.361 111.6C211.343 111.67 211.307 111.734 211.255 111.784C210.693 112.376 206.578 112.098 204.512 111.589C204.263 111.532 204.022 111.442 203.796 111.323C203.185 111.694 202.714 112.259 202.458 112.927C202.287 113.359 202.24 113.831 202.322 114.288C202.427 114.225 202.536 114.168 202.648 114.117C203.873 113.525 205.353 113.631 207.182 114.413C208.366 114.928 208.958 115.39 209.018 115.857C209.02 115.977 208.99 116.096 208.931 116.2C208.871 116.304 208.785 116.39 208.68 116.449C207.774 117.041 204.613 116.958 202.967 116.082C202.589 115.877 202.274 115.572 202.056 115.2C201.091 116.088 200.309 117.669 199.599 120.149C199.577 120.203 199.541 120.25 199.493 120.283C199.446 120.317 199.39 120.336 199.332 120.339V120.339ZM202.541 114.815C202.706 115.122 202.957 115.373 203.263 115.538C204.601 116.248 207.23 116.408 208.212 116.011C208.414 115.928 208.443 115.863 208.443 115.863C208.443 115.863 208.414 115.532 206.963 114.91C205.306 114.2 204.003 114.099 202.92 114.602C202.789 114.665 202.663 114.736 202.541 114.815V114.815ZM204.518 110.926L204.666 110.967C206.594 111.412 208.578 111.561 210.551 111.411C209.851 111.152 209.13 110.954 208.396 110.819C207.121 110.474 205.772 110.511 204.518 110.926V110.926ZM205.264 107.599C205.538 107.697 205.822 107.76 206.111 107.788C209.071 108.138 211.67 107.729 212.031 107.356C211.93 107.267 211.534 107.013 210.065 106.735C208.413 106.405 206.698 106.714 205.264 107.599V107.599Z" fill="#333333"/>
<path d="M122.266 180.776C122.657 180.652 122.526 180.273 122.088 180.273H114.073C98.8108 178.657 88.1489 180.824 94.8681 181.333C101.587 181.842 94.3945 181.735 89.4868 183.594C84.5792 185.453 125.984 185.921 129.743 183.594C133.2 181.451 116.855 182.511 122.266 180.776Z" fill="#333333"/>
<path d="M179.654 183.138L109.917 180.824L107.022 113.205L189.375 115.046L179.654 183.138Z" fill="#4F4F4F"/>
<path d="M131.691 181.842C131.616 181.842 131.544 181.814 131.489 181.764C131.434 181.713 131.401 181.644 131.395 181.569L125.806 113.655C125.801 113.577 125.827 113.5 125.878 113.44C125.928 113.381 126 113.343 126.078 113.336C126.156 113.332 126.233 113.358 126.292 113.409C126.351 113.459 126.389 113.53 126.398 113.608L132.016 181.522C132.019 181.561 132.015 181.6 132.003 181.637C131.991 181.674 131.972 181.709 131.947 181.739C131.921 181.768 131.89 181.793 131.855 181.81C131.821 181.828 131.783 181.839 131.744 181.842H131.691Z" fill="#333333"/>
<path d="M179.654 183.138L198.397 180.285L204.299 117.408L189.375 115.046L179.654 183.138Z" fill="#4F4F4F"/>
<path opacity="0.2" d="M179.654 183.138L198.397 180.285L204.299 117.408L189.375 115.046L179.654 183.138Z" fill="#191C1F"/>
<path d="M115.872 167.794L114.156 127.614C114.113 126.622 114.275 125.631 114.631 124.704C114.986 123.776 115.529 122.931 116.224 122.222C116.919 121.512 117.753 120.952 118.673 120.578C119.593 120.203 120.58 120.021 121.573 120.043L173.705 121.227C174.731 121.25 175.741 121.491 176.668 121.933C177.595 122.375 178.417 123.008 179.081 123.791C179.745 124.574 180.236 125.489 180.52 126.476C180.805 127.463 180.877 128.498 180.732 129.515L174.954 169.972C174.704 171.744 173.809 173.361 172.44 174.514C171.071 175.666 169.325 176.273 167.536 176.218L122.905 174.738C121.073 174.681 119.33 173.934 118.026 172.646C116.721 171.358 115.952 169.625 115.872 167.794V167.794Z" fill="#333333"/>
<path d="M168.128 160.003C168.017 160.005 167.907 159.983 167.805 159.939C167.703 159.895 167.611 159.83 167.536 159.748L162.469 154.201L156.999 159.198C156.847 159.337 156.647 159.41 156.441 159.401C156.236 159.392 156.042 159.302 155.903 159.15L150.836 153.603L145.366 158.6C145.214 158.739 145.014 158.812 144.808 158.803C144.603 158.794 144.41 158.704 144.271 158.552L139.197 153.005L133.733 158.002C133.653 158.074 133.56 158.129 133.458 158.164C133.356 158.198 133.248 158.212 133.141 158.203C132.935 158.191 132.742 158.1 132.602 157.949L127.535 152.407L122.071 157.398C121.918 157.537 121.717 157.61 121.51 157.601C121.304 157.593 121.109 157.502 120.969 157.351C120.9 157.276 120.847 157.188 120.812 157.092C120.777 156.996 120.762 156.894 120.767 156.792C120.772 156.69 120.797 156.59 120.841 156.498C120.885 156.406 120.947 156.323 121.023 156.255L127.061 150.732C127.214 150.593 127.415 150.52 127.621 150.529C127.828 150.537 128.022 150.628 128.162 150.779L133.23 156.326L138.694 151.33C138.849 151.194 139.05 151.122 139.256 151.129C139.462 151.14 139.656 151.231 139.795 151.383L144.863 156.93L150.333 151.934C150.407 151.864 150.495 151.81 150.591 151.775C150.686 151.74 150.788 151.724 150.89 151.728C150.992 151.733 151.092 151.757 151.184 151.801C151.277 151.844 151.359 151.905 151.428 151.981L156.495 157.528L161.965 152.532C162.117 152.393 162.317 152.32 162.523 152.329C162.728 152.338 162.922 152.428 163.061 152.579L168.72 158.724C168.821 158.837 168.887 158.977 168.91 159.127C168.933 159.277 168.912 159.43 168.849 159.568C168.786 159.707 168.685 159.823 168.557 159.905C168.429 159.986 168.28 160.028 168.128 160.026V160.003Z" fill="white"/>
<path d="M74.4442 184.577L70.7383 182.806L67.4349 166.722L69.2287 164.75L74.4442 184.577Z" fill="#4F4F4F"/>
<path d="M74.4442 184.577L79.3637 181.699L75.1486 168.45L69.2286 164.75L74.4442 184.577Z" fill="#4F4F4F"/>
<path opacity="0.2" d="M74.4442 184.577L79.3637 181.699L75.1486 168.45L69.2286 164.75L74.4442 184.577Z" fill="#191C1F"/>
<path d="M155.104 187.501H154.696C153.911 187.48 153.166 187.148 152.626 186.578C152.086 186.008 151.794 185.246 151.816 184.461C151.837 183.676 152.169 182.932 152.739 182.392C153.309 181.851 154.07 181.56 154.856 181.581C159.414 181.729 169.064 178.929 174.581 173.577C174.914 173.25 175.32 173.007 175.765 172.867C185.113 170.061 188.588 175.726 188.73 175.969L183.639 178.982C183.656 179.02 183.678 179.056 183.704 179.089C183.65 179.012 182.324 177.313 178.109 178.355C171.189 184.665 160.568 187.501 155.104 187.501Z" fill="#333333"/>
<path d="M154.743 191.432L143.963 190.757L143.116 170.878L157.602 171.417L154.743 191.432Z" fill="#4F4F4F"/>
<path d="M154.743 191.432L157.265 188.922L158.828 176.531L157.602 171.417L154.743 191.432Z" fill="#4F4F4F"/>
<path opacity="0.2" d="M154.743 191.432L157.265 188.922L158.828 176.531L157.602 171.417L154.743 191.432Z" fill="#191C1F"/>
<path d="M217.211 183.908C216.824 183.907 216.448 183.781 216.139 183.547C209.983 178.87 201.665 170.564 198.474 162.554C198.426 162.438 198.392 162.317 198.373 162.193C196.816 152.934 195.331 133.452 195.265 132.629C195.248 132.396 195.277 132.161 195.35 131.939C195.423 131.717 195.539 131.511 195.691 131.334C195.999 130.976 196.437 130.755 196.908 130.72C197.379 130.684 197.845 130.837 198.203 131.146C198.561 131.454 198.782 131.891 198.817 132.362C198.817 132.558 200.339 152.23 201.854 161.412C205.039 169.203 213.694 177.2 218.3 180.717C218.597 180.942 218.815 181.254 218.924 181.61C219.034 181.966 219.028 182.347 218.909 182.7C218.79 183.053 218.563 183.359 218.261 183.576C217.958 183.793 217.595 183.909 217.223 183.908H217.211Z" fill="#333333"/>
<path d="M225.422 184.802C224.048 184.802 222.491 184.18 220.792 182.955C220.411 182.678 220.155 182.262 220.08 181.796C220.006 181.331 220.119 180.856 220.396 180.474C220.672 180.093 221.089 179.836 221.554 179.762C222.019 179.688 222.495 179.801 222.876 180.077C224.344 181.137 225.144 181.261 225.422 181.261C225.893 181.261 226.345 181.449 226.678 181.782C227.011 182.115 227.198 182.566 227.198 183.037C227.198 183.508 227.011 183.96 226.678 184.293C226.345 184.626 225.893 184.813 225.422 184.813V184.802Z" fill="#333333"/>
<path d="M221.29 182.901C223.19 177.26 230.981 178.373 233.669 179.213C235.964 179.88 238.166 180.834 240.222 182.055C241.672 183.002 241.696 184.595 239.76 185.5C237.392 186.613 231.377 185.625 231.377 185.625C234.48 186.98 231.378 189.177 225.925 187.022C224.155 186.323 220.621 184.973 221.29 182.901Z" fill="#4F4F4F"/>
<path d="M202.381 135.044C201.677 139.839 197.704 143.373 194.472 142.9C191.24 142.426 191.11 138.164 191.814 133.345C192.518 128.526 193.797 125.057 197.03 125.531C200.262 126.004 203.086 130.267 202.381 135.044Z" fill="#333333"/>
<path d="M124.249 115.923C124.517 115.923 124.735 115.705 124.735 115.437C124.735 115.169 124.517 114.952 124.249 114.952C123.981 114.952 123.764 115.169 123.764 115.437C123.764 115.705 123.981 115.923 124.249 115.923Z" fill="#333333"/>
<path d="M129.18 118.93C129.18 119.026 129.152 119.12 129.099 119.199C129.045 119.279 128.97 119.342 128.881 119.378C128.792 119.415 128.694 119.425 128.6 119.406C128.506 119.387 128.42 119.341 128.352 119.273C128.284 119.205 128.238 119.119 128.219 119.024C128.2 118.93 128.21 118.833 128.247 118.744C128.283 118.655 128.346 118.579 128.425 118.526C128.505 118.473 128.599 118.444 128.695 118.444C128.824 118.444 128.947 118.495 129.038 118.587C129.129 118.678 129.18 118.801 129.18 118.93Z" fill="#333333"/>
<path d="M129.725 176.295C129.725 176.391 129.697 176.484 129.643 176.564C129.59 176.644 129.514 176.706 129.425 176.743C129.337 176.78 129.239 176.789 129.145 176.771C129.051 176.752 128.964 176.706 128.896 176.638C128.828 176.57 128.782 176.483 128.763 176.389C128.745 176.295 128.754 176.197 128.791 176.109C128.828 176.02 128.89 175.944 128.97 175.891C129.05 175.838 129.144 175.809 129.24 175.809C129.368 175.809 129.492 175.86 129.583 175.951C129.674 176.042 129.725 176.166 129.725 176.295V176.295Z" fill="#333333"/>
<path d="M134.171 179.793C134.171 179.889 134.142 179.983 134.089 180.063C134.036 180.143 133.96 180.205 133.871 180.242C133.783 180.279 133.685 180.288 133.591 180.269C133.497 180.251 133.41 180.204 133.342 180.137C133.274 180.069 133.228 179.982 133.209 179.888C133.191 179.794 133.2 179.696 133.237 179.608C133.274 179.519 133.336 179.443 133.416 179.39C133.496 179.336 133.59 179.308 133.686 179.308C133.814 179.308 133.938 179.359 134.029 179.45C134.12 179.541 134.171 179.665 134.171 179.793Z" fill="#333333"/>
<path d="M48.846 185.613C47.9937 185.573 47.1613 185.342 46.4102 184.937C45.6591 184.533 45.0086 183.964 44.5066 183.274C44.482 183.243 44.4641 183.206 44.4541 183.167C44.444 183.128 44.4419 183.088 44.448 183.048C44.4541 183.008 44.4682 182.97 44.4894 182.936C44.5107 182.902 44.5387 182.873 44.5716 182.85C44.6046 182.827 44.6419 182.811 44.6813 182.803C44.7206 182.795 44.7612 182.795 44.8005 182.803C44.8399 182.811 44.8771 182.827 44.9101 182.85C44.943 182.873 44.9709 182.903 44.9921 182.937C46.0991 184.535 48.5441 185.382 49.6097 184.879C49.7164 184.833 49.8115 184.765 49.8879 184.677C49.3495 184.44 48.8777 184.074 48.5143 183.612C48.1508 183.149 47.9069 182.604 47.8041 182.025C47.6679 181.273 47.5614 180.249 48.177 180.119C49.0295 179.93 50.1425 181.984 50.545 183.541C50.618 183.798 50.644 184.067 50.622 184.334C50.9635 184.436 51.3226 184.464 51.6758 184.417C51.8349 184.405 51.9897 184.359 52.1304 184.284C52.2711 184.209 52.3945 184.105 52.4927 183.979C52.1031 183.685 51.7799 183.312 51.5443 182.884C51.3086 182.457 51.1658 181.985 51.1252 181.498C50.9002 179.876 51.0719 179.598 51.2495 179.456C51.3071 179.412 51.3757 179.385 51.4479 179.377C51.52 179.37 51.5928 179.383 51.658 179.414C52.2914 179.681 53.0551 181.978 53.2031 183.28C53.2209 183.416 53.2209 183.553 53.2031 183.689C53.4583 183.787 53.7289 183.839 54.0023 183.843C54.5043 183.862 55.0008 183.732 55.429 183.47C55.3462 183.416 55.2692 183.357 55.1922 183.298C54.6002 182.771 54.3279 181.93 54.4345 180.735C54.5174 179.805 54.7246 179.296 55.0975 179.136C55.2178 179.088 55.3496 179.076 55.4768 179.101C55.6039 179.126 55.721 179.188 55.8138 179.278C56.2135 179.72 56.5121 180.243 56.689 180.811C56.8659 181.38 56.9167 181.98 56.838 182.57C56.7866 182.816 56.6837 183.048 56.5361 183.251C57.6254 183.44 59.1527 183.132 60.4729 182.807C60.5118 182.797 60.5521 182.796 60.5916 182.802C60.631 182.808 60.6689 182.822 60.703 182.843C60.7371 182.864 60.7667 182.891 60.7902 182.924C60.8137 182.956 60.8306 182.993 60.8399 183.032C60.8492 183.07 60.8508 183.111 60.8446 183.15C60.8383 183.19 60.8243 183.228 60.8035 183.262C60.7826 183.296 60.7552 183.325 60.7228 183.349C60.6905 183.372 60.6538 183.389 60.615 183.399C59.0106 183.795 57.282 184.121 56.0625 183.766C55.4672 184.218 54.7382 184.46 53.9905 184.452C53.6587 184.448 53.3301 184.386 53.0196 184.269C52.8819 184.482 52.6971 184.66 52.4795 184.791C52.2619 184.921 52.0173 185 51.7646 185.021C51.3196 185.078 50.8675 185.04 50.4385 184.908C50.3004 185.141 50.0935 185.325 49.8465 185.435C49.529 185.563 49.1882 185.624 48.846 185.613V185.613ZM48.3369 180.711C48.255 181.113 48.2712 181.53 48.3842 181.925C48.4677 182.398 48.6642 182.844 48.9568 183.225C49.2495 183.607 49.6298 183.912 50.0655 184.115C50.0572 183.975 50.0334 183.836 49.9945 183.701C49.5327 182.007 48.6447 180.841 48.3369 180.711V180.711ZM51.6343 180.196C51.6382 180.604 51.6718 181.012 51.735 181.415C51.8002 182.137 52.119 182.813 52.6348 183.322C52.4891 182.229 52.1504 181.17 51.6343 180.196V180.196ZM55.358 179.681C55.358 179.681 55.133 179.793 55.0502 180.782C54.9673 181.771 55.139 182.451 55.6007 182.848C55.71 182.937 55.8292 183.012 55.9559 183.073C56.1116 182.906 56.2217 182.703 56.2756 182.481C56.381 181.549 56.1293 180.612 55.5711 179.858C55.4468 179.705 55.3758 179.681 55.358 179.681V179.681Z" fill="#333333"/>
<path d="M135.491 190.088L137.095 187.306L135.491 184.523H133.774L134.745 187.306L133.774 190.088H135.491Z" fill="#333333"/>
<path d="M133.887 188.756C133.689 188.769 133.491 188.741 133.304 188.674C133.117 188.607 132.946 188.502 132.802 188.367C132.657 188.231 132.542 188.067 132.463 187.885C132.384 187.703 132.344 187.507 132.344 187.309C132.344 187.11 132.384 186.914 132.463 186.732C132.542 186.55 132.657 186.387 132.802 186.251C132.946 186.115 133.117 186.011 133.304 185.944C133.491 185.877 133.689 185.849 133.887 185.861L131.164 185.317L130.435 187.519L131.655 189.378L133.887 188.756Z" fill="#333333"/>
<path d="M134.124 184.523H130.909L129.305 187.306L130.909 190.088H134.124L135.728 187.306L134.124 184.523ZM132.519 188.756C132.232 188.757 131.951 188.673 131.712 188.515C131.473 188.356 131.286 188.13 131.175 187.865C131.064 187.6 131.035 187.308 131.09 187.027C131.145 186.745 131.283 186.486 131.486 186.282C131.688 186.079 131.947 185.94 132.228 185.884C132.51 185.827 132.802 185.856 133.067 185.965C133.332 186.075 133.559 186.261 133.719 186.499C133.879 186.738 133.964 187.019 133.964 187.306C133.964 187.689 133.812 188.058 133.541 188.329C133.27 188.601 132.903 188.755 132.519 188.756V188.756Z" fill="#E6C3FF"/>
<path d="M247.391 184.334L246.201 182.268L247.391 180.202H248.664L247.947 182.268L248.664 184.334H247.391Z" fill="#E6C3FF"/>
<path d="M248.581 183.345C248.729 183.356 248.877 183.337 249.017 183.288C249.157 183.239 249.285 183.161 249.394 183.06C249.502 182.959 249.589 182.837 249.648 182.701C249.708 182.566 249.738 182.419 249.738 182.271C249.738 182.123 249.708 181.976 249.648 181.84C249.589 181.704 249.502 181.582 249.394 181.481C249.285 181.38 249.157 181.303 249.017 181.254C248.877 181.205 248.729 181.185 248.581 181.196L250.606 180.794L251.144 182.428L250.244 183.807L248.581 183.345Z" fill="#E6C3FF"/>
<path d="M248.409 180.202H250.777L251.961 182.268L250.777 184.334H248.409L247.225 182.268L248.409 180.202ZM249.593 183.345C249.807 183.347 250.015 183.284 250.193 183.167C250.371 183.049 250.51 182.881 250.593 182.684C250.675 182.488 250.697 182.271 250.657 182.061C250.616 181.852 250.513 181.66 250.363 181.508C250.213 181.357 250.021 181.254 249.811 181.212C249.602 181.17 249.385 181.191 249.188 181.272C248.991 181.353 248.822 181.491 248.704 181.669C248.585 181.846 248.522 182.055 248.522 182.268C248.521 182.41 248.548 182.55 248.602 182.681C248.656 182.812 248.735 182.931 248.835 183.032C248.936 183.132 249.055 183.211 249.186 183.265C249.317 183.319 249.457 183.346 249.599 183.345H249.593Z" fill="#333333"/>
<path d="M203.056 187.081H205.732C206.067 187.079 206.388 186.945 206.624 186.708C206.86 186.47 206.993 186.149 206.993 185.814V185.814C206.993 185.479 206.86 185.158 206.624 184.92C206.388 184.683 206.067 184.549 205.732 184.547H203.056C202.72 184.547 202.398 184.681 202.16 184.918C201.923 185.156 201.789 185.478 201.789 185.814V185.814C201.789 186.15 201.923 186.472 202.16 186.71C202.398 186.947 202.72 187.081 203.056 187.081V187.081Z" fill="#333333"/>
<path d="M198.752 184.689C199.001 184.238 199.376 183.869 199.831 183.628C200.287 183.387 200.803 183.284 201.316 183.333C201.829 183.382 202.317 183.58 202.719 183.902C203.121 184.225 203.419 184.658 203.578 185.148C203.737 185.639 203.748 186.165 203.612 186.662C203.475 187.159 203.196 187.605 202.809 187.945C202.421 188.285 201.943 188.505 201.433 188.576C200.922 188.648 200.402 188.568 199.936 188.348C199.296 188.018 198.812 187.448 198.59 186.762C198.369 186.077 198.427 185.332 198.752 184.689Z" fill="#E6C3FF"/>
<path d="M199.474 188.347L200.208 188.693L202.757 183.285L202.024 182.939L199.474 188.347Z" fill="#333333"/>
</svg>
